<?xml version="1.0" encoding="UTF-8" standalone="no"?>
<svg
   xmlns:dc="http://purl.org/dc/elements/1.1/"
   xmlns:cc="http://creativecommons.org/ns#"
   xmlns:rdf="http://www.w3.org/1999/02/22-rdf-syntax-ns#"
   xmlns:svg="http://www.w3.org/2000/svg"
   xmlns="http://www.w3.org/2000/svg"
   xmlns:sodipodi="http://sodipodi.sourceforge.net/DTD/sodipodi-0.dtd"
   xmlns:inkscape="http://www.inkscape.org/namespaces/inkscape"
   xml:space="preserve"
   enable-background="new 0 0 1084 920"
   viewBox="0 0 1140 920"
   height="920"
   width="1140"
   y="0px"
   x="0px"
   id="Canada"
   version="1.1"
   inkscape:version="0.91 r13725"
   sodipodi:docname="canada.svg"><sodipodi:namedview
     pagecolor="#ffffff"
     bordercolor="#666666"
     borderopacity="1"
     objecttolerance="10"
     gridtolerance="10"
     guidetolerance="10"
     inkscape:pageopacity="0"
     inkscape:pageshadow="2"
     inkscape:window-width="1366"
     inkscape:window-height="705"
     id="namedview174"
     showgrid="false"
     inkscape:zoom="0.5961394"
     inkscape:cx="419.07805"
     inkscape:cy="235.74303"
     inkscape:window-x="-8"
     inkscape:window-y="-8"
     inkscape:window-maximized="1"
     inkscape:current-layer="Canada" /><metadata
     id="metadata1207"><rdf:RDF><cc:Work
         rdf:about=""><dc:format>image/svg+xml</dc:format><dc:type
           rdf:resource="http://purl.org/dc/dcmitype/StillImage" /><dc:title /></cc:Work></rdf:RDF></metadata><defs
     id="defs1205" /><g
     display="none"
     id="Canada_1_"
     style="display:none"><polygon
       id="polygon6"
       points="986.5,682.5 981,677.5 979.5,679.5 980.5,682.5 979,684.5 978,705.5 986,712 1000,703.5 999,696.5 1003,694.5 999.5,690 1000.5,689 993.5,691.5 992,690.5 987.5,693.5 988,685 "
       display="inline"
       style="display:inline;fill:#fdfcea" /><polygon
       id="polygon8"
       points="1063.5,599 1062.5,596.5 1063.5,593.5 1061.5,592 1059,594.5 1059,607.5 1060.5,609.5 1059.5,609 1054.5,606 1055.5,603.5 1054,601.5 1049.5,601.5 1049,601 1053,596 1053,594.5 1054.5,593 1053.5,584.5 1051.5,584 1051.5,586.5 1049,589.5 1049.5,593 1045,595 1045.5,591.5 1043.5,589.5 1039.5,590 1038,588.5 1039.5,580.5 1038,579 1034,578.5 1023.5,583.5 1023.5,586 1019,592.5 1015.5,588.5 1014.5,591 1011,593.5 1003,591.5 1005,588 1006.5,584.5 1005.5,582 1003,584 999,585.5 998,585 995,585.5 996.5,590.5 994.5,593.5 996,599.5 991.5,593 990.5,577.5 986,572 988,571 989.5,572.5 988.5,564 987.5,561.5 984.5,565 983.5,562.5 987.5,558 987,553.5 983,553.5 982.5,555.5 980.5,555.5 976.5,568.5 976,582 977,589 982,608 981,615 985,619.5 987,620.5 984,622 984,630.5 985,634 981,634 978,638 981,639.5 984.5,637 985,636 987.5,634 989,636 987.5,637 987.5,645.5 984.5,651.5 988,654 987.5,656.5 991,656.5 994.5,655 1000.5,648.5 1005,645 1007.5,644.5 1013,640.5 1016.5,641 1021,638.5 1023,634.5 1028.5,629 1030,626.5 1031.5,625 1033.5,626.5 1034,630.5 1039.5,628 1038.5,624 1042.5,620 1046,622 1043.5,625.5 1042.5,633.5 1039.5,640 1042,642.5 1049.5,636 1050,634 1049,625 1052.5,621 1050,610.5 1051.5,609.5 1054,609.5 1058.5,614.5 1062,621 1061.5,624 1064.5,627 1066.5,626 1067.5,617.5 1069.5,616.5 1069.5,620.5 1075,625.5 1076,622 1078.5,619.5 1078.5,617 1076,610 1074.5,599.5 1068.5,597.5 1067.5,604 1065.5,607 1063,605 "
       display="inline"
       style="display:inline;fill:#fdfcea" /><polygon
       id="polygon10"
       points="967.5,714.5 964.5,709.5 964.5,707.5 967,704 966.5,701 961,705 958.5,706.5 957.5,704 955,705 954,708 950,709 949.5,710.5 943.5,711 942,713 940,711.5 938,711 932.5,705.5 931.5,712 930.5,714 939.5,718.5 943.5,718.5 954.5,718 956,721 957.5,721 958,718 966,717 "
       display="inline"
       style="display:inline;fill:#fdfcea" /><polygon
       id="polygon12"
       points="958,679 961,675 960.5,672.5 955.5,679.5 956.5,686 958.5,686.5 961,685 958.5,682 "
       display="inline"
       style="display:inline;fill:#fdfcea" /><polygon
       id="polygon14"
       points="914,644.5 897.5,650.5 907.5,652 912.5,655.5 925,655 931.5,652 941.5,650.5 942,647 939,645 931,644.5 923,643.5 919,645.5 "
       display="inline"
       style="display:inline;fill:#fdfcea" /><path
       id="path16"
       d="m 986.5,716 -4.5,-3 -3.5,3 -2,-2 -2,0 -6,8 -6,-0.5 -3,1.5 -0.5,2.5 -4.5,-1 -3,0.5 -3.5,-1 -0.19,0.5 -0.869,1.19 -0.229,-0.054 0.288,-0.14 0.5,-3.5 -11,0 -3,1 -6.5,-6.5 -2.5,0.5 -2.5,-5.5 -3.5,-0.5 -1,1.5 -2,-0.5 2,-4 0,-2.5 -1,-7 -1.5,-3.496 -5.5,3 -2.5,5 -3,0.5 -2.5,-3.5 -10,0.5 -0.063,0.03 -0.479,0.66 -0.263,-0.19 -0.198,0.5 -0.762,-1.91 1.765,-0.59 6,-5 2,1 5.5,0 5,-8 3.5,-6 -0.5,-8 -4,-4.5 -11.5,-1 -8.5,2 -18.5,18.5 -11.303,15.75 -5.197,7.25 -4,8.5 -5.5,24 -2.5,5 -6,5.5 -4,7 -3,1 -8.5,8 -8.5,15 -2,11 -4,5 -3.183,2.271 -0.021,-0.101 4.697,-5.17 1.5,-8 0.5,-5.5 5,-8.5 5.393,-6.51 6.607,-7.99 10,-11 3,-5.5 -0.5,-6.5 3,-3 4,-24.5 5.5,-15 5,-10.5 7,-3.5 0,-13 3,-9 9,-7.5 L 906,637 l 1.5,0 19,-9.5 3.5,0 8,-6.5 11.5,-7 0.5,-1.5 0,-5.5 2,-7 2,-6.5 -1.5,-2 0,-2 2,-2 -0.5,-4 7,-5 -0.5,-2.5 2,-5 6,-2 -1.513,-0.47 0.013,-0.03 1.287,0.21 0.2,-0.29 0.013,0.36 3.25,-2.78 3,-11.5 1,-9 -2.5,-4 -2,-4 -3.37,0.96 -0.21,-0.07 -7.92,-11.39 -8,-3 -6.5,-0.5 -3.5,3.5 0,5.5 -2.5,-1.5 -1,-5 -6,-5 -9,7 1.5,2 -6,8 0,6.5 -2,1 -6.25,12.5 -0.28,-0.271 -0.47,-12.229 7.5,-12 0,-4 9,-12 -0.5,-4.5 -6.5,0.5 -2.5,-2.5 -2,1.5 0,4 -4,1.5 -9,-3 -3,3 -4,-2 -3.5,4.5 -5.5,1 1,-4.5 -4,-5 -7.5,2.5 -4.5,-2 -2.5,2 0,-3 -3.5,-1.5 -3,2 -5,-4 -2,-6.5 1,-7.5 -1.5,-1.5 -5,0.5 -1,-2 -6.5,-1.5 2.5,-3.5 -2.69,-3.94 c 0,0 -0.021,0 -0.029,0 -0.479,0.813 -5.09,0.94 -5.78,0.94 l -0.5,-3.5 -5.5,-2 -1,-2.5 -7.067,2.83 -0.239,-0.21 1.813,-3.62 -2,-5 -2.5,0.5 -6.5,-5 -3,-0.5 -2,-1.5 -3.633,-1.59 -10.93,-10.603 1.141,1.5 -0.328,-0.31 -1.381,0.52 -4.619,-2.52 0.5,15 1.5,4 2,17.5 -4,0 1,7.5 -8,11 L 775,500 l -3,-0.5 -7,-4 -8.5,6.5 -2.5,4 -1.5,-0.5 -2.5,-4.5 3,1 1,-1.5 -1,-2 3,-3 -4,-5 -2,1.5 -1.5,-2.5 0,-2 -4,-8.5 -1,0 -0.5,-2 1,-0.5 -4.5,-6 -2.5,-5.5 1,-1.5 1.5,-3 -3.5,-3 -1.5,1.5 2.5,3 -4.5,0 -1,-2.5 -4.5,1 0,2.5 -13,-0.5 -2.5,-5 0.5,-2.5 -1,-1.5 -1.5,1 -9.5,-4 -3,-3.5 -12,-3.5 -9.5,11 -3,-2 -3,1.5 -20.5,-0.5 -5,6.5 1.5,6 7,9 1.5,9 -2,6 1.5,3 2,-1.5 5,11 5.5,7.5 -2.5,3 -0.5,9.5 -2,7 -4,2.5 3,5.5 4,4 5.5,1.5 10.5,6.5 10.5,11 4.5,11.5 1.5,15.5 -2.5,9 -10.5,18.5 -5,3.5 -4.5,5.5 -8,1.5 1,2.5 3.5,1 3.5,5 3.5,2.5 2.5,2.5 -0.5,3 3,9 4.5,6 2.5,5 2.5,8 2.5,0.5 2,5.5 -3,6 -0.5,4.5 4,4 0,3.5 -2.5,1.5 -1.5,-4 -4.5,-2.5 -2.5,3 0.68,3.13 0.32,4.87 -6,1 -8,-5 -9,-9 -2,0.5 -6,-7 -10,-10 -3,0 0.5,-9.5 -3,-9.5 -4.5,-11.5 0,-8 2,-1 -3.5,-8.5 -2,2 -4.5,0 -6,-1.5 -0.5,0.5 -24,2 -11.5,-6.5 -2.5,0.5 -8.5,-4 -6,0 -5,-1.5 -0.5,-2 -6.5,-8.5 -9.08,-5.68 -0.013,-0.41 -0.38,-0.5 -0.311,0.47 -0.103,-0.29 L 547,597 l -0.353,0.47 -0.03,0 0.16,-0.188 -0.34,0.188 -0.102,-0.01 -9.835,-0.46 -7,-5 -9,-1.5 -10,6.5 -7,-2.5 1.5,-3 -4.5,-20.5 -4,-5 1.5,-6 -4.5,-1.5 -2.5,2 -11,-0.5 0,-3 -3.5,-4 1,-5.5 -0.473,-15 0.25,0 0.021,-0.29 0.199,0.29 2.5,-7 -0.5,-3.5 3.5,-2.5 5,-17.5 -1,-2 6,-5 -3,-2.5 13.5,-12.5 -2,-2 5.5,-1.5 -4.5,-4 1.5,-2 8,0.5 5,-5.5 1,-4.5 -12,-8 -3,1.5 -12,-7 -4,1 4,-4 11,6.5 6,-0.5 8.5,4 6,-2.5 1.5,-8 3.5,-1 6,1 8.5,-6 1,-7 2.5,-3 3,-12.5 -17.5,-1 -9.5,-8 -7.497,-2.5 0,-2 10,1 11,7.5 10.5,1 8.5,-10.5 -0.5,-1.5 2.5,-5.5 -2,-2.5 -6,-2.5 -0.5,-4.5 10,1.5 3,3.5 5.5,1 1.5,-3 5,2.5 2.5,-0.5 -3,-4 0,-3.5 3.5,3 6.5,-4 5.5,-12.5 2.5,0 -0.5,-11.5 -6,-4.5 -9,-13.5 0,-2 4.5,0.5 4.5,-7 -4,-5 1.5,-3.5 -4,-2 -4.5,0 -2.5,-3 -1,-4 -11,0.5 -5.5,-1.5 -5.5,1.5 1.5,11.5 6,4.5 -1,5.5 1.5,1 -2,1.5 -2.5,-1.5 -2,1.5 2,15 -3.5,5 -0.5,10.5 -4.5,0 1,3 -4,2.5 0.5,-2.5 -10.5,-15 0,-10 2.5,3.5 3.5,0 -2,-6.5 -8.5,-11 -3,-3 -5.5,4.5 1.5,9 -1.5,1.5 1,7.5 -3.5,0.5 -3,-14 -4.5,-7.5 4,-5.5 -2,-1.5 -6,-1 -3,3 -4.5,-5 3.5,-7 -3,-3 4,2.5 2.5,-2.5 -4.5,-4 0.5,-2.5 -5.5,-5.5 -2,-12.5 -8.5,-10.5 -2,2 -2,-4.5 -3,0.5 -0.5,3.5 -4.5,3 3.5,2.5 -2,4 -2.5,-2.5 -3.5,3.5 1.5,2 0,5.5 -2,3 4.5,3.5 -2,2 -3,3 0.5,6.5 11,11.5 2.5,-1 4,5 3,-2 1.5,4 -4,-1.5 -1.5,4.5 -3,7 3.5,3 2,-2 1,-4 1.5,0 0.5,10.5 -2,-0.5 -5.5,10 -6,1.5 -2,2.5 2,7 0,8.5 -1.5,0 -3,-3.5 -3,2 1,-4 -1.5,-2.5 1.5,-4.5 -0.5,-9 2,-2 -3,0 -8,-3.5 -4.5,-4 0,3.5 -6,1 2,4 0.5,4 5,1.5 1.5,0 3,4.5 -3,1.5 -9,-7.5 -1.5,4.5 -5.5,-1 -4,-2.5 -5,0 -2.5,3 -11,-0.5 -11.5,-11 -2,2 -4.5,-2.5 -0.5,-1.5 -5.5,-5 0.09,-0.42 0.91,-4.08 -3.5,-8 -2.5,-0.5 -7.5,3.5 -10.5,0 -4,6.5 4.5,3 3,-2.5 3.5,1.5 8.5,-1.5 2,-3 2.5,1 0.5,3.5 -18.5,6.5 -3.5,3 2,6.5 1.5,9.5 1,5 -1.5,0 -2.5,-3 -2,4 -3,-2.5 2,-7.5 -5,-10 -8,-10 -6,3 -2,-1.5 -12.5,-1 -20.5,-8.5 -1,-3.5 5.5,-4 1.5,1.5 5.5,1.5 2,-4.5 -2.5,-9.5 -7,-7 -7,0 -11.5,-7.5 0,-3.5 -10.92,-11.83 -0.58,-1.17 -0.17,0.36 -0.053,-0.05 0,0.16 -0.22,0.47 -0.17,-0.53 0.17,-0.41 -0.49,-0.54 L 275,275.5 l -4.5,-1 -2,2.5 -4,3 -4,-0.5 -2,-2 3,-6 -0.5,-4 5,-6 -1.5,-1.5 -7,6 -3.5,2.5 -3.5,4.5 -3,-2 -0.5,-8.5 1,-14.5 -1.5,-5.5 -3.5,1 1,6 -7,0.5 1,3.5 -4.5,1.5 0.5,-3 -12,-2.5 -4.5,2.5 -2.5,0 0,-2 -6.5,-0.5 -10,2.5 -3,3.5 -3,-3 1,-3 18,-2.5 2,1 19.5,-1.5 -3,-3.5 -3.5,-0.5 -3,-2.5 -7.5,2.5 -12.5,-3.5 -3,4.5 -5.5,-2.5 -4,2.5 -8.5,1 -2.5,-2 -3.5,2.5 -0.5,-3.5 -1.5,-3 -1.5,-1 -0.48,0.9 -0.02,-1.4 -5,-5 -1.5,-4 0,-6 -1.5,-1 0.5,-6 -2.29,-3.25 -6.78,-11.75 -4.36,5.99 L 21,355 l 3.5,4 2,-0.5 2,5 4.5,0 4.77,3.98 -1.02,1.43 -3.25,0.59 0,3.97 0,0.47 -0.5,-0.44 2,22.5 -3,6.5 8,0.5 2,1 3,0.5 2.5,-4 3.5,-1.5 9,2.5 0.5,8 -2,0 1,4.5 2,5.5 -2,2.5 2.5,16 -1,1.5 -1.5,27.5 -3.5,2.5 2,2.5 -3,3 1,3.5 -1,3.5 2.5,1.5 6,11 1,5 3.5,2.5 -1,4.5 -4,2 -4,9.5 -3,2.5 0,3 -14.5,10 2.5,6 -1.5,2.5 1.5,15.5 1.5,0.5 3,-4.5 9.5,1.5 -9.5,7.5 1,7.5 -0.5,6.5 1.5,2 -3,3.5 -2.5,1.5 2.5,7 11.5,-1 0,5 -15,3.5 -2,7 3.5,1 -8,7.5 4.5,10.5 3,-2 8,8.5 -4.5,5 8.5,5.5 2,0 6,7.5 0,4 -2.5,1 2.5,8.5 5,1 0.5,4 -2,0.5 1,6 3.5,2 0.5,5.5 -2,3.5 6,2 2.34,-0.87 -0.07,1.24 -0.147,0.38 L 102,698 l 37,15 29.5,11 31.5,10.5 21,6 36,9.5 0.107,-0.47 21.893,4.97 28.5,5.5 27,4.5 21.5,3 26.5,3 0.25,0.03 0.25,0.47 0.157,-0.44 35.343,2.94 42.5,1.5 11.5,0 0,-8.41 0.5,0.104 0.027,0 -0.027,0.25 0,0.056 0.117,-0.021 5.263,1.601 1.62,10.92 3,2 7.5,0.5 2.5,2 3,0.5 5,-2.5 7.5,1 6.5,6.5 -0.5,1.5 5,-3 7,5.5 5,0.5 6,-5 1.5,0 2,3 9.5,0 2,1.5 4.157,-0.32 1.813,0.2 -0.063,-0.34 0,-0.01 0.593,-0.03 1.5,-3 0.5,-3.5 3.5,-3.5 2,2.5 2,-1.5 2.5,-8.5 2,0.5 -2,6.5 5,-7.5 -1.5,-3 1,-1.5 8,3.5 14,-1 6,3 0.5,3 9,10 7.5,0 6.5,-1.5 0,6 7,7.5 -2,6 5.5,2 -0.5,5 -1,3 6.5,-0.5 9,4.5 4.5,-1.5 11.5,0 15.5,-1 2,2 7,0 4,-3.5 10.5,11 4.5,2.5 0.5,2 7.5,8.5 -2.5,7.5 -5,0.5 -5.5,-3.5 -4.5,0 -3,-4.5 -5.5,-5 -5.5,1.5 7.5,8.5 1,6.5 -4.5,5.5 3,23 -8,7.5 -0.5,8 0.5,7.5 -9,4.5 2.5,5.5 9,0 0.5,-3.5 7,-5.5 2,-0.5 3.5,-7 3.5,-4.5 16.5,-1 3.5,-2 -4,-1 0,-2 4.5,-1.5 13,-5.5 4,0 0.14,-0.43 0.36,0.93 0.397,-3.2 0.103,-0.3 -0.063,-0.06 0.063,-0.44 -1.5,-1 -3,-5.5 0.397,1.05 -3.897,1.95 -7,1.5 -3,-2 5,-8 5,-6 17.5,-9 4.5,-1 0.5,1 7,-1.5 3.5,-2.5 -4.5,-2 1,-1.5 2.5,0 3.5,-3.5 2.09,-1.69 2.188,-0.22 0.689,-0.3 -0.13,-0.021 0.13,0.014 4.029,-1.78 3,-5.5 0.5,-3 2.5,-3 5.5,-8.5 4.118,-1.688 3.82,-0.778 L 800,812 l -0.133,-0.51 0.133,0.45 0.527,-0.82 L 845,795 l -0.5,-7 3.5,0 2,-3 2,2 0.5,-4.5 3,-0.5 -3,-2.5 3.5,-6.5 -1,-2 1,-1.5 -0.5,-3.5 -3,-4.5 1.5,-4.5 -1.5,-6 3.067,-16.12 1.949,-4.88 1.979,0 0.5,3 1.063,-1.81 0.319,0.59 3.618,-3.28 -1.188,1.34 5.101,-3.55 -7.47,6.78 2.562,0.43 7,-5 4,-0.5 6,4 1.5,2 8.5,18.5 3,5.5 6,0.5 1.5,4.5 3,3 4.5,0.5 2.5,-2.5 2.5,0 7.5,-4 1,-4 3.5,-0.5 3,-4.5 4,-6.5 2,-2 2,-2.5 1.5,-6 2.75,-1.57 0.84,-0.06 -0.09,0.13 0.46,-0.16 0.729,-0.05 0.313,0.21 -4,12.5 1.5,-0.5 7,-5 7,-4 3.5,0.5 0,1 -3,1.5 -4,4.5 -1.5,3 -1.5,0 -1,-3.5 -1,0 -7,9.5 -1,3.5 -9.5,16 3.5,1 -1.5,6 7,7 2.5,-1.5 4,2 0.5,3 5.5,-3.5 0,-3 3,-3 6,-17.5 -1,-1.5 -2,-3 3,-3.5 3.5,1.5 4,-3.5 -1,-3 4.5,-3.5 4.5,-5 10.5,-15.5 4.5,-4.5 4,-3 0,-1 -7,1 -0.502,-1.5 z"
       display="inline"
       inkscape:connector-curvature="0"
       style="display:inline;fill:#fdfcea" /><polygon
       id="polygon18"
       points="777,424.5 774,423.5 770,427.5 777,431.5 780,429.5 "
       display="inline"
       style="display:inline;fill:#fdfcea" /><polygon
       id="polygon20"
       points="754,464.5 752,468 755.5,470.5 759,466 759,460 755.5,459.5 "
       display="inline"
       style="display:inline;fill:#fdfcea" /><polygon
       id="polygon22"
       points="707,425.5 713.5,431.5 717,430.5 717,428 "
       display="inline"
       style="display:inline;fill:#fdfcea" /><polygon
       id="polygon24"
       points="682.5,685.5 689,680.5 685,679.5 682,683 "
       display="inline"
       style="display:inline;fill:#fdfcea" /><polygon
       id="polygon26"
       points="685.5,887.5 685,898 686,891 "
       display="inline"
       style="display:inline;fill:#fdfcea" /><polygon
       id="polygon28"
       points="670,826 661.5,826 662,828.5 670.5,828.5 682.5,831.5 685,829 684.5,823 682,824 680,822 677.5,823.5 672,824 "
       display="inline"
       style="display:inline;fill:#fdfcea" /><polygon
       id="polygon30"
       points="666,622 668.5,623.5 674.5,619.5 673,617 "
       display="inline"
       style="display:inline;fill:#fdfcea" /><polygon
       id="polygon32"
       points="659,598.5 663,595 665,597.5 671,591 668,586.5 667,582 665.5,583 665.5,585.5 663.5,588.5 662.5,586 661.5,592 "
       display="inline"
       style="display:inline;fill:#fdfcea" /><polygon
       id="polygon34"
       points="660,662 652,662 646.5,664.5 644.5,668 647,670 657,670.5 664.5,672.5 667,671.5 "
       display="inline"
       style="display:inline;fill:#fdfcea" /><polygon
       id="polygon36"
       points="659,590.5 660,587.5 656,591 "
       display="inline"
       style="display:inline;fill:#fdfcea" /><polygon
       id="polygon38"
       points="643.5,430 650,434 653,433 653,430.5 "
       display="inline"
       style="display:inline;fill:#fdfcea" /><polygon
       id="polygon40"
       points="640.5,335.5 646.5,335 650.5,333 649,330 643.5,330 640.5,327 638.5,332.5 "
       display="inline"
       style="display:inline;fill:#fdfcea" /><polygon
       id="polygon42"
       points="636.5,434.5 634,437.5 635,440 637,441 640.5,444 644,440.5 644.5,436.5 "
       display="inline"
       style="display:inline;fill:#fdfcea" /><polygon
       id="polygon44"
       points="573.5,249.5 572,260 569.5,260 571,250 570,243.5 567.5,236 565,234.5 562.5,234 562,230 558,224 546,227 543,232 540,236 538.5,243.5 537,248 537.5,257 542,259 537.5,267.5 542,273 547.5,274 547.5,284 543.5,283 545.5,280.5 534.5,268 530.5,248 531.5,239.5 537.5,229.5 533.5,226.5 524.5,227.5 513.5,241 512,248.5 509.5,262.5 512,284 515.5,285.5 525.5,286 530,290 525,291.5 519.5,288 516,290.5 516.5,297 518,296.5 525,303 525,305.5 533.5,306 534.5,301 545.5,313 552,306 554.5,308.5 566,306.5 571.5,310 576,306.5 579,309.5 582,307 578.5,302.5 587,301.5 589.5,304.5 596.5,301.5 591.5,293.5 588,293.5 588,290.5 600.5,294.5 605,302 611,299.5 612.5,303 610.5,305 615.5,305.5 624.5,311 623,315.5 619,317.5 619.5,324 626.5,319 627.5,314 637.5,319 642,319 642,323 652,328 663,343 661.5,344.5 661,358.5 653,370 655.5,373 664,377 664.5,382.5 660.5,382 659.5,387 655,387 652,391.5 644,393 643,391.5 634.5,392 633,394.5 633.5,397 636,400 629.5,404 631.5,410 634,413.5 640,417.5 644.5,418.5 646.5,415.5 654,410 652,406.5 654.5,404.5 663,407 663.5,405 667.5,398.5 669.5,406 671,402.5 690,413.5 694.5,412.5 698,413 698.5,421 704,424.5 706,423 718.5,424.5 720.5,422.5 723.5,422.5 725.5,426 734,429 744,426.5 757.5,426.5 761,427.5 763.5,422 759,418.5 751.5,414 738,409.5 733,408.5 721,400 725,396 733,402.5 737.5,401.5 746.5,406 755.5,403.5 761,405 764,407 764.5,404.5 763,401.5 762.5,397.5 759,394.5 755,389 761,392 761,387.5 754,383 754,380 744,377 747,375.5 744.5,371 741,373.5 735.5,366.5 733.5,368.5 727,367 716,357.5 711.5,359.5 710.5,357.5 706,353.5 707,350 710,353.5 714.5,350.5 713,348.5 709,347.5 706,343.5 710.5,344 707.5,339.5 712.5,337 718,342 726.5,345 730.5,340.5 728.5,346.5 734,348.5 737.5,353 742.5,357.5 747.5,353.5 752.5,356 752.5,350.5 748,339.5 751,340 754.5,334 753,326 748.5,326 748.5,321.5 752.5,321 753,319.5 750.5,316 753.5,313 742,310 735.5,316.5 734.5,307.5 728.5,314 726,312.5 722.5,305.5 716,304 713,307 714.5,301.5 713,299.5 705.5,307.5 697.5,306.5 693,299.5 690,300.5 675,301.5 675,299 680,298.5 682.5,296.5 680,289.5 677,288.5 684,287 687,283.5 686,281 676,282.5 671.5,283 672,280 678.5,274.5 670.5,267 668,267.5 668.5,272.5 665.5,274 663,272 658,276.5 656.5,275 666,265.5 665,263.5 655,261.5 652,266 650,267 652,262.5 646,267.5 645.5,259.5 642.5,258.5 641,264.5 639.5,262 635.5,265 637.5,267.5 641,265 639,269 635.5,268 634.5,262.5 639,258.5 638.5,256 631,250.5 628,253.5 626.5,261 618,251 612,258.5 611,257.5 615.5,251 613,245 608,246 607.5,242.5 601.5,239.5 599,241.5 593,238 583.5,243 583.5,257.5 582,257.5 581,249 576,251 576.5,247.5 "
       display="inline"
       style="display:inline;fill:#fdfcea" /><polygon
       id="polygon46"
       points="637.5,338.5 633.5,333.5 635,328.5 626.5,328 620,331.5 620.5,348.5 624.5,352 630.5,350.5 636.5,351 639,344 "
       display="inline"
       style="display:inline;fill:#fdfcea" /><polygon
       id="polygon48"
       points="631,325 634.5,327 635,325.5 628.5,319 "
       display="inline"
       style="display:inline;fill:#fdfcea" /><polygon
       id="polygon50"
       points="634,478.5 633.5,468 630.5,460 624,464 623.5,471 630.5,481 "
       display="inline"
       style="display:inline;fill:#fdfcea" /><polygon
       id="polygon52"
       points="612,315 615.5,310 613,307.5 609,311 "
       display="inline"
       style="display:inline;fill:#fdfcea" /><polygon
       id="polygon54"
       points="599,434 602,429.5 596,420 589.5,417.5 580.5,411.5 576.5,411.5 571.5,406.5 569.5,407 569,412 567,412.5 560,398.5 555.5,401 556,411 558,413.5 556.5,438 549.5,449 551,452 563.5,446.5 566,447.5 566,452 568.5,458.5 575,454.5 579,446 580.5,445 584.5,442 582.5,438 586,433.5 590,436 594,437 597,440.5 601.5,441.5 607.5,444.5 614.5,437 615,433.5 609.5,428.5 608,432 603,431.5 600.5,434.5 "
       display="inline"
       style="display:inline;fill:#fdfcea" /><polygon
       id="polygon56"
       points="589,474 591,474.5 595,474.5 600,472.5 599,470.5 605.5,461 604.5,454.5 598,456 594,459.5 590.5,457 589.5,462.5 585,469.5 "
       display="inline"
       style="display:inline;fill:#fdfcea" /><polygon
       id="polygon58"
       points="599,306 597,311 604,305 "
       display="inline"
       style="display:inline;fill:#fdfcea" /><polygon
       id="polygon60"
       points="599.5,312.5 598,325 602,321 602,313 "
       display="inline"
       style="display:inline;fill:#fdfcea" /><polygon
       id="polygon62"
       points="572.5,244 577.5,243 578.5,238.5 583,236 592.809,235.3 597,235 595.5,231.5 583,220.5 576.5,221 571.5,223 563.5,222 563,224.5 565.5,232 568.679,234.48 570,235.5 "
       display="inline"
       style="display:inline;fill:#fdfcea" /><polygon
       id="polygon64"
       points="585.5,307 583,310 587.5,312.5 593,308 593,305.5 588,307 "
       display="inline"
       style="display:inline;fill:#fdfcea" /><polygon
       id="polygon66"
       points="581,399.5 577,396.5 569.5,393.5 574.5,401.5 580.5,401.5 "
       display="inline"
       style="display:inline;fill:#fdfcea" /><polygon
       id="polygon68"
       points="504.5,65 510,60 506.5,67 497,69 497,71 505,75 507,70 508,76.5 517.5,75 518,72.5 520.5,72 521.5,75 531,68 533,64 538,64.5 532,74 522.5,80 523,82.5 529.5,87 528.5,89.5 532.5,94 529.5,93.5 526.5,89 524.5,89 519,83 508,83 508,86 509.5,89 510.5,93.5 516.5,97.5 518.57,101.41 521,106 521.5,111.5 529.5,112.5 531,111 533.5,112.5 528.5,117.5 525.5,114.5 516,115 512,118.5 511.5,122 509.5,125 509.52,125.35 510,133.5 512.5,133.5 515,131 517,133 518.5,133 521,131.5 520,136 521.5,140.5 527.5,144.5 530,142 531,138.5 532.5,142 532,144.5 528,146.5 521.5,147 519.5,144 516,138.5 509,138.5 509,142 510,144 511,149.5 514,150.5 514.5,152 511.5,155.5 509.5,155 504,162.5 505,169.5 504.5,171.5 510.5,172 512.5,173 518.5,168.5 521.5,170.5 530.5,173.5 529.5,170 530.5,167.5 537.5,166 538.5,169 542,166.5 541.5,163.5 548,163.5 548.5,170.5 550,171.5 561.5,160 563,154 560,148.5 558,150 558,152.5 557,153.5 553.5,150.5 555,148 553.5,145.5 550.5,147.5 540.5,148 539.5,139.5 543,143.5 550.5,144.5 557.5,138.5 554,130 557.5,128 559,129 565,123.5 560.5,121 565,119.5 564,115.5 560,112.5 564.5,112.5 563.5,106.5 559.5,104.5 558,102.5 553,103.5 555,99.5 563.5,98.5 560.5,95 548.5,98.5 554.5,94 557.5,93.5 564,87 562.5,83 566,85 570,79 570.5,72.5 564,75.5 569,69 568.5,66 571,65 575,49.5 576,43 578.5,35.5 576,33 572.5,35 566.5,46.5 563.5,47 568.5,36.5 563.5,39 562,38 570,34.5 576.5,23.5 575.5,12 573.5,9 569,10 564.5,4.5 560,5 556.5,13 553.5,13 556,9 555,5.5 551,7.5 543.5,7 542.5,9.5 539,9.5 536.5,13.5 527,12.5 526.5,16.5 529,19 529,20 520,19 516,24 518,27.5 514.5,26 514,33.5 515.5,36 512,37.5 505,31.5 505,36.5 501.5,38.5 508,43.5 503,44 501,42.5 498,42.5 495.5,48 494,46.5 485.5,53 488.5,56.5 491.5,54 493,54.5 490.5,58.5 495,62.5 492.5,65 493.5,68 "
       display="inline"
       style="display:inline;fill:#fdfcea" /><polygon
       id="polygon70"
       points="563.5,395.5 566,404 569.5,403 "
       display="inline"
       style="display:inline;fill:#fdfcea" /><polygon
       id="polygon72"
       points="542,210 545.5,205.5 553.5,209.5 557,205.5 560,205.5 561.5,198.5 564,197.5 564,194 560.5,194 560.5,191.5 562.5,186.5 559.5,184.5 555.5,184.5 556,181 551,180.5 548.5,177.5 536.5,181 533,186.5 527.5,187.5 525,190 525.5,194.5 520.5,189.5 513,191 513,188 510,188 509.5,192.5 508,192 508.5,187.5 505,183 499,183 497,181.5 501,177.5 505,176 498,173 498,170.5 493.5,167 490,166.5 487,170.5 485.5,169 482,163 479,163 470,159 466,162 465.5,166 472.5,175 473.5,173.5 472.5,178 482.5,176.5 486,175.5 487,182 491,186 492,192.5 489,200 493,202.5 492.5,209.5 494.5,209.5 498,213.5 501.5,213 507,215 511.5,208.5 514.5,210 513,214 528.5,214 533,212.5 536,210 "
       display="inline"
       style="display:inline;fill:#fdfcea" /><polygon
       id="polygon74"
       points="543.5,349 539,351.5 542.5,359 544.5,357.5 "
       display="inline"
       style="display:inline;fill:#fdfcea" /><polygon
       id="polygon76"
       points="535.5,308 532,311.5 538,312 538.5,310.5 "
       display="inline"
       style="display:inline;fill:#fdfcea" /><polygon
       id="polygon78"
       points="492.5,228.5 485,223 477.5,225 474.5,229.5 476.5,233 471,232.5 472,236 471,254.5 475,263 476,270.5 481,271.5 486,260.5 484,255.5 486,253.5 490,256 493.5,256.5 499.5,248 499.5,243.5 504.5,234.5 501.5,226 "
       display="inline"
       style="display:inline;fill:#fdfcea" /><polygon
       id="polygon80"
       points="485.5,128.5 492.5,134 496,133.5 497,131.5 501.5,129 502.5,132 504.5,132.5 505,126.5 507,125.5 506.5,122.5 510.5,113.5 517,110 516.5,102.5 509,98.5 506.5,91 504,88.5 504,81.5 499.5,80.5 501.5,83 501.5,88 500,88 496.5,79.5 493.5,79.5 492.5,75.5 484,61.5 478,61 477,63.5 481.5,66 478.5,70 476.5,68 474,68 473.5,73 477,76.5 477.5,78.5 472.5,79 470.5,87.5 472.5,87 476.5,93.5 470.5,89 470.5,98 473.5,101 473,105 475.5,109.5 485.5,107 478.5,114 484,124.5 488,125 "
       display="inline"
       style="display:inline;fill:#fdfcea" /><polygon
       id="polygon82"
       points="502,166 499,162 501,173 503.5,173 "
       display="inline"
       style="display:inline;fill:#fdfcea" /><polygon
       id="polygon84"
       points="495.5,143.5 493.5,146.5 494,150.5 498,155 502,155 501.5,149.5 "
       display="inline"
       style="display:inline;fill:#fdfcea" /><polygon
       id="polygon86"
       points="477,213.5 484.5,212.5 484.5,198.5 477,190.5 472.5,192.5 470.5,197.5 466,204.5 "
       display="inline"
       style="display:inline;fill:#fdfcea" /><polygon
       id="polygon88"
       points="479.5,148.5 482.5,150 484.5,143.5 477,142.5 476,143.5 472,142 468.5,147.5 "
       display="inline"
       style="display:inline;fill:#fdfcea" /><polygon
       id="polygon90"
       points="475,184.5 478,188.5 481.5,187.5 477.5,183.5 "
       display="inline"
       style="display:inline;fill:#fdfcea" /><polygon
       id="polygon92"
       points="477,136.5 474,129.5 475,127 472,126 470.5,123.5 462.5,119.5 460.5,119.5 462,123.5 461,130 466,135.5 462.5,135 465,141.5 470,141 "
       display="inline"
       style="display:inline;fill:#fdfcea" /><polygon
       id="polygon94"
       points="467.5,326.5 471.5,330 474,327 470,323.5 "
       display="inline"
       style="display:inline;fill:#fdfcea" /><polygon
       id="polygon96"
       points="440,335.5 443,339 464.5,349 474,341 472.5,338.5 469,338 469.5,334 463,327 462.5,324 454,317 448.5,323 447.5,330 446,332.5 442,331.5 "
       display="inline"
       style="display:inline;fill:#fdfcea" /><polygon
       id="polygon98"
       points="463.5,193.5 465.5,197 471.5,192.5 468.5,190.5 "
       display="inline"
       style="display:inline;fill:#fdfcea" /><polygon
       id="polygon100"
       points="464.5,251 467.5,248 463.5,244.5 461.5,248.5 "
       display="inline"
       style="display:inline;fill:#fdfcea" /><polygon
       id="polygon102"
       points="461.5,236 464,235.5 460.5,229 449.5,233 448,232.5 446.5,227 439.5,228.5 440,234.5 436,236 435.5,242 441,246 439,254.5 436.5,252.5 431,244 426.5,251 430.5,259 431.5,261.5 440,270.5 443.5,278 443.5,281.5 450.5,286.5 453.5,283.5 454,278 455.5,278 457,279.5 465.5,274 465,271 464.5,264.5 466.5,260.5 461.5,254.5 461.5,252 460.5,248 455,249 455,246 460.5,240.5 "
       display="inline"
       style="display:inline;fill:#fdfcea" /><polygon
       id="polygon104"
       points="455,205 460.5,201 462,195.5 463,192 462,187 463,184.5 463,176.5 461,172.5 457,167.5 454.5,172.5 452.5,172.5 451.5,167.5 444.5,172.5 448,175 448,178.5 450.5,185 447,182 442.5,172 439.5,173 439,180 442.5,186.5 438.5,183.5 432.5,190.5 450.5,189 450,191 443.5,197 447,205.5 451.5,203.5 "
       display="inline"
       style="display:inline;fill:#fdfcea" /><polygon
       id="polygon106"
       points="460.5,90 456,88.5 454.5,93 458,98.5 461,98.5 "
       display="inline"
       style="display:inline;fill:#fdfcea" /><polygon
       id="polygon108"
       points="451,230 460,226.5 459,225 455,225 450,227 "
       display="inline"
       style="display:inline;fill:#fdfcea" /><polygon
       id="polygon110"
       points="448,138.5 453.5,143 457,141 455,129 456,121 450,117.5 447.5,111 443.5,114 442.5,109 438,103 431.5,106 431.5,110.5 438.5,121 438,123.5 434,121.5 430.5,123.5 433,128.5 438,128 446.5,131 447.5,132.5 "
       display="inline"
       style="display:inline;fill:#fdfcea" /><polygon
       id="polygon112"
       points="447.5,162.5 442,168 444,170.5 450,165.5 "
       display="inline"
       style="display:inline;fill:#fdfcea" /><polygon
       id="polygon114"
       points="447.5,143.5 447,141.5 439.5,139.5 442,143 "
       display="inline"
       style="display:inline;fill:#fdfcea" /><polygon
       id="polygon116"
       points="438,181 433.5,180.5 429.5,185 434,185.5 "
       display="inline"
       style="display:inline;fill:#fdfcea" /><polygon
       id="polygon118"
       points="431,336 433.5,341 436,338.5 434.5,335 "
       display="inline"
       style="display:inline;fill:#fdfcea" /><polygon
       id="polygon120"
       points="426,175 427.5,179 435,177 435,174.5 "
       display="inline"
       style="display:inline;fill:#fdfcea" /><polygon
       id="polygon122"
       points="432.5,172.5 433,170 428.5,165 424.5,167 427,170 427,172.5 "
       display="inline"
       style="display:inline;fill:#fdfcea" /><polygon
       id="polygon124"
       points="424,151 428,153.5 429.5,152 426,140 423,139 423.5,145.5 "
       display="inline"
       style="display:inline;fill:#fdfcea" /><polygon
       id="polygon126"
       points="419,198 422.5,200.5 427.5,200 425.5,196 425,191 421.5,191 421,194.5 "
       display="inline"
       style="display:inline;fill:#fdfcea" /><polygon
       id="polygon128"
       points="424,341 421,337.5 418.5,340 421.5,343.5 "
       display="inline"
       style="display:inline;fill:#fdfcea" /><polygon
       id="polygon130"
       points="412,227 406,227 401,231 409.5,246 417.5,233.5 "
       display="inline"
       style="display:inline;fill:#fdfcea" /><polygon
       id="polygon132"
       points="407,112.5 401,115.5 394,116 392.5,118 398,120.5 401,122.5 402.5,121 403.5,121.5 403.5,122.5 407,123 407,123.5 410,125 412.5,123 413.5,119.5 409.94,113.72 409.5,113 "
       display="inline"
       style="display:inline;fill:#fdfcea" /><polygon
       id="polygon134"
       points="390,129.5 389.5,133 387.5,136.5 392,141.5 402,141.5 402,132 405.5,130.5 407,127.5 395,127 "
       display="inline"
       style="display:inline;fill:#fdfcea" /><polygon
       id="polygon136"
       points="401,343.5 398.5,339.5 396,342.5 399.5,345 "
       display="inline"
       style="display:inline;fill:#fdfcea" /><polygon
       id="polygon138"
       points="416.5,194.5 417,192 420,185.5 420,180 416,175.5 412.5,175.5 410,177.5 406,173.5 404.5,172.5 407.5,170.5 406,165.5 407,160.5 406.5,156.5 404,155.5 400.5,161 394.5,164.5 398.5,170.5 399.5,173.5 396.5,173 394.5,175.5 401.5,184.5 399,185 393,182 391.97,181.64 387.5,181 387.5,175.5 384.5,173.5 386,171.5 383.5,169 383.5,166 378,162.5 378,160 375.5,156.5 368,156 366,158.5 365.5,158.5 360,165 364,168.5 359.5,167 355,170.5 361,174.5 352.5,173.5 350,175.5 356.5,182.5 358,185 366.5,188 368.5,184.5 371,185 370,188.5 384,188.5 384,192 376.5,190 369.5,193 365.5,193.5 364.5,198 371,203.5 375,203.5 389.287,199.17 389.69,198.06 397,196 400,200 404,199.5 406.5,201 412.5,199 "
       display="inline"
       style="display:inline;fill:#fdfcea" /><polygon
       id="polygon140"
       points="388.5,128.5 385.5,122 382.5,124 384,128 383.5,131 "
       display="inline"
       style="display:inline;fill:#fdfcea" /><polygon
       id="polygon142"
       points="377,152.5 382,152.5 383,150.5 375.5,148.5 "
       display="inline"
       style="display:inline;fill:#fdfcea" /><polygon
       id="polygon144"
       points="361,143.5 361.5,144.5 357.5,150.5 360.5,156.5 364,152.5 370,151 370.5,145.5 372,145.5 372,142.5 371.5,139 374,140 376,138.5 373.5,130.5 371,130.5 369.5,133.5 368,134 364.5,130.5 360,131 348,140 342,140 341.5,144 338,143 331.5,146 331.5,152 337.5,154 340.5,153.5 340,157.5 345,159 348,157.5 348,155 351.5,155 "
       display="inline"
       style="display:inline;fill:#fdfcea" /><polygon
       id="polygon146"
       points="349.5,162.5 343,165 346,170.5 357.5,160 357.5,158.5 "
       display="inline"
       style="display:inline;fill:#fdfcea" /><polygon
       id="polygon148"
       points="295,247 302.5,248.5 310.5,235.5 317,233.5 321,229 339.5,220 345,220.5 349.5,216 345,201.5 340.5,197.5 334.5,197 330.5,195 326.5,190.5 325,182 317,182.5 313,180.5 305.5,179.5 305.5,184 302.5,186.5 304,194 275.5,221 284,237 283.5,239.5 281,244.5 282,247.5 290.5,247.5 294,245 "
       display="inline"
       style="display:inline;fill:#fdfcea" /><polygon
       id="polygon150"
       points="188,232.5 184,234 177.5,234 178.5,235.5 179.5,240.5 181,242 185,242 198,237 195,231.5 190.5,234 "
       display="inline"
       style="display:inline;fill:#fdfcea" /><polygon
       id="polygon152"
       points="67.5,667.5 62,659.5 61,664 66,671.5 "
       display="inline"
       style="display:inline;fill:#fdfcea" /><polygon
       id="polygon154"
       points="25.5,615.5 24,619.5 27,624.5 33,624.5 32.5,627 28,627.5 25,632 32,638 30.5,639 32.5,643 36.5,644 37,651.5 35,651.5 34.5,653.5 36,657 39.5,657 41,665 39.5,667 43,672.5 47.5,671.5 48,674 46,677 54.5,688.5 61.5,692.5 64.5,687 65.5,675.5 63.74,673.441 56.5,665 56,644 47.89,636.12 38.5,627 36,621 29,615 "
       display="inline"
       style="display:inline;fill:#fdfcea" /><polygon
       id="polygon156"
       points="44.5,595.5 56.5,594 56,591.5 44.5,593 "
       display="inline"
       style="display:inline;fill:#fdfcea" /><polygon
       id="polygon158"
       points="49.5,555.5 48,558.5 53.5,556 "
       display="inline"
       style="display:inline;fill:#fdfcea" /><polygon
       id="polygon160"
       points="40,574 43.5,580.5 48.5,572 46,563.5 39.5,570.5 "
       display="inline"
       style="display:inline;fill:#fdfcea" /><polygon
       id="polygon162"
       points="42,556.5 40,543.5 38.5,544.5 40.5,560 "
       display="inline"
       style="display:inline;fill:#fdfcea" /><polygon
       id="polygon164"
       points="40,541.5 37.5,539 33.5,539 37,543.5 "
       display="inline"
       style="display:inline;fill:#fdfcea" /><polygon
       id="polygon166"
       points="39,572.5 36,572 34.5,577.5 38.5,577.5 "
       display="inline"
       style="display:inline;fill:#fdfcea" /><polygon
       id="polygon168"
       points="37.5,556.5 35.5,549.5 34.5,547 31.5,550 35,559 "
       display="inline"
       style="display:inline;fill:#fdfcea" /><polygon
       id="polygon170"
       points="34,644.5 30.5,648 35,651 "
       display="inline"
       style="display:inline;fill:#fdfcea" /><polygon
       id="polygon172"
       points="18.5,524.5 16,523.5 15.5,520 13.5,518 8.5,524.5 7,528.5 4.5,531 7,533.5 6,542 13,542.5 17.5,536.5 27.5,529 21.5,527.5 17.5,534 12,532.5 12.5,531.5 18,531 20,528 "
       display="inline"
       style="display:inline;fill:#fdfcea" /><polygon
       id="polygon174"
       points="11.5,570 11.5,567.5 10,566.5 10,559 8.5,554 11,547.5 16.5,547 14,543.5 5,544 5.5,545.5 5.5,552 8,569.5 "
       display="inline"
       style="display:inline;fill:#fdfcea" /><polygon
       id="polygon176"
       points="412.5,280 409.5,272.5 408.5,245.5 400.5,236 398,237.5 395.5,233 393.5,234 390,261 392,267 387.5,272 387,265 385.5,263.5 387,260 385.5,254.5 386.5,249.5 385.5,247.5 380,237 379,237.5 376,237 376,239.5 378,241.5 379,241 379.5,243 376.5,246.5 376.53,246.68 376.36,246.75 370.5,249 366.5,249.5 366,248 369.5,247 370,243 364,234.5 360.5,232.5 355,239.5 349.5,239 357.5,232.5 354.5,222 342,226.5 339.5,225.5 333.5,226.5 323.5,234 323,240 321,239 317,243 315,243 312.5,246 314,248 316.5,249.5 318,251.5 316,253.5 318.5,256.5 326.5,257.5 336,258.5 335.5,260.5 315.5,260.5 311.5,266 314,272 320,274 326.15,277.95 325.779,278.172 331.5,280 342,280 341,282 349,286.5 354.5,293.5 347.5,294 337.5,287.5 325,284.5 311,285 311,286.5 311.577,286.67 311.56,286.68 312.07,286.95 312,287 312,294 315.5,301.5 320.5,306.5 331,311.5 330,316 333,326.5 343,330.5 360,332.5 371.5,327.5 379.5,328 386.5,322.5 387,320 388.5,320.5 388.5,324 397,329.5 399,328.5 395.5,332.5 398.5,334.5 406.5,334.5 409.5,337 417.5,336.5 422,333.5 422.5,327 421.5,324.5 418.5,323 414.5,326.5 412.5,319 418,322 419,319 422.5,316.5 424,314.5 424.5,319.5 430,316.5 429,321 432.5,318 433,309.5 429,310 425,306.5 419,299.5 416.5,300 412,291.5 409,284 "
       display="inline"
       style="display:inline;fill:#fdfcea" /></g><polygon
     id="YK"
     points="34,374.69 34,374.22 34,370.25 37.25,369.66 38.27,368.23 33.5,364.25 29,364.25 27,359.25 25,359.75 21.5,355.75 152.07,206.74 156.43,200.75 163.21,212.5 165.5,215.75 165,221.75 166.5,222.75 166.5,228.75 168,232.75 173,237.75 157,259.25 156.5,262.25 151.5,270.25 149.5,270.75 156,275.25 164.5,283.75 161.5,292.75 154.5,302.75 155.5,304.25 157.5,304.25 159.5,307.75 164,308.25 160.5,319.25 158.5,318.75 153.5,321.25 152,322.75 152.5,325.25 148.5,330.25 151,334.25 149,337.25 151,339.75 149.5,340.75 154.5,345.75 154,347.75 152,355.25 157,358.75 154,361.75 155.5,368.75 150,370.25 151.5,376.75 148,379.75 148,389.75 146.5,393.25 144.5,395.75 146.5,399.25 151,399.25 153,416.25 156.5,420.75 152,426.75 151.5,433.75 155.5,435.75 161,436.25 164,440.25 173.5,442.25 175,444.75 172,445.75 173,463.25 129,440.75 95,420.25 58.75,395 34,374.75 "
     style="fill:#ffcccc" /><polygon
     id="SK"
     points="279.5,755.25 257.61,750.281 309.5,535.25 310.06,529.191 311,528.75 314.25,515.691 314.5,515.25 314.5,514.75 354,522.75 387.5,527.75 400,528.75 395.34,569 396,569.25 393.72,583.191 390,615.25 383,771.25 356.5,768.25 335,765.25 308,760.75 "
     style="fill:#ffcccc" /><path
     id="QC"
     d="m 942.5,647.75 -0.5,3.5 -10,1.5 -6.5,3 -12.5,0.5 -5,-3.5 -10,-1.5 16.5,-6 5,1 4,-2 8,1 8,0.5 z m -206,-189.5 -1.5,1.5 2.5,3 -4.5,0 -1,-2.5 -4.5,1 0,2.5 -13,-0.5 -2.5,-5 0.5,-2.5 -1,-1.5 -1.5,1 -9.5,-4 -3,-3.5 -12,-3.5 -9.5,11 -3,-2 -3,1.5 -20.5,-0.5 -5,6.5 1.5,6 7,9 1.5,9 -2,6 1.5,3 2,-1.5 5,11 5.5,7.5 -2.5,3 -0.5,9.5 -2,7 -4,2.5 3,5.5 4,4 5.5,1.5 10.5,6.5 10.5,11 4.5,11.5 1.5,15.5 -2.5,9 -10.5,18.5 -5,3.5 -4.5,5.5 -8,1.5 1,2.5 3.5,1 3.5,5 3.5,2.5 2.5,2.5 -0.5,3 3,9 4.5,6 2.5,5 2.5,8 2.5,0.5 2,5.5 -3,6 -0.5,4.5 4,4 0,3.5 -2.5,1.5 -1.5,-4 -4.5,-2.5 -2.5,3 0.68,3.13 0.32,4.87 -0.28,0.05 21.28,78.95 3.5,8.5 8.5,8.5 9.5,5.5 16.5,-0.5 7.5,5 6.5,-1 3,5.5 6.06,1.31 2.851,-0.84 3.593,-1.97 14,-10 7.5,0.5 1,4.5 1.89,7.55 0.11,0.394 0.527,-0.82 44.47,-16.122 -0.5,-7 3.5,0 2,-3 2,2 0.5,-4.5 3,-0.5 -3,-2.5 3.5,-6.5 -1,-2 1,-1.5 -0.5,-3.5 -3,-4.5 1.5,-4.5 -1.5,-6 3.068,-16.12 1.271,-3.18 -0.771,-0.313 6.932,-22.888 27.288,-7.54 -0.55,-1.37 1.763,-0.59 6,-5 2,1 5.5,0 5,-8 3.5,-6 -0.5,-8 -4,-4.5 -11.5,-1 -8.5,2 -18.5,18.5 -11.303,15.75 -5.197,7.25 -4,8.5 -5.5,24 -2.5,5 -6,5.5 -4,7 -3,1 -8.5,8 -8.5,15 -2,11 -4,5 -3.183,2.271 -0.021,-0.101 4.697,-5.17 1.5,-8 0.5,-5.5 5,-8.5 5.393,-6.51 6.607,-7.99 10,-11 3,-5.5 -0.5,-6.5 3,-3 4,-24.5 5.5,-15 5,-10.5 7,-3.5 0,-13 3,-9 9,-7.5 30.505,-15.5 1.5,0 19,-9.5 3.5,0 8,-6.5 11.5,-7 0.5,-1.5 0,-5.5 2,-7 2,-6.5 -1.5,-2 0,-2 2,-2 -0.5,-4 7,-5 -0.5,-2.5 2,-5 6,-2 -1.513,-0.47 0.013,-0.03 1.287,0.21 -7.287,-9.71 -77,47 -2,-3.5 -6.5,-4.5 -0.5,-3 4.5,-4.5 -3.5,-2 -2.5,5 0,3.5 2.5,4 1.5,7 3.5,9 -3.5,4 -4.5,-4 -4.5,2 -7,-5.5 -0.5,2.5 -6.5,1.5 -3.5,-2.5 -1.5,2.5 -2,-2.5 1.5,-2.5 -2.5,-3 0.5,-2 -5.5,-6 -2.5,3.5 2.5,4 -1,2 -8,-3 -2.5,-3 4,-2.5 -5.5,-8 -2,1 -10,-7.5 0.5,-4.5 -4.5,-3 5,-3.5 2,-4 -6,-4 -3,-4 12,4.5 -0.5,-5 -6,-6.5 8.5,3.5 10,1 7,-7 3,2.5 4,-3 3.5,1.5 5,-2 -4.5,-4.5 3,-1.5 -3,-6.5 -1,-5 -4.5,1 2,-2 -6.5,-8 1.5,-2.5 -5,1.5 -4,-6.5 2.5,0 -6.5,-5 2.5,-4.5 -3.5,-3.5 1.5,-3.5 -3,-1.5 1,-3.5 -3,-4.5 -4.5,-1 -8,-3.5 -1,-3 3,-4 -4,-5 4.5,-4.5 -28.853,-23.92 -0.147,-0.081 0.5,15 1.5,4 2,17.5 -4,0 1,7.5 -8,11 -5.5,-4.5 -3,-0.5 -7,-4 -8.5,6.5 -2.5,4 -1.5,-0.5 -2.5,-4.5 3,1 1,-1.5 -1,-2 3,-3 -4,-5 -2,1.5 -1.5,-2.5 0,-2 -4,-8.5 -1,0 -0.5,-2 1,-0.5 -4.5,-6 -2.5,-5.5 1,-1.5 1.5,-3 z"
     style="fill:#ffdea9"
     inkscape:connector-curvature="0" /><polygon
     id="PE"
     points="940,719.25 931,714.75 932,712.75 933,706.25 938.5,711.75 940.5,712.25 942.5,713.75 944,711.75 950,711.25 950.5,709.75 954.5,708.75 955.5,705.75 958,704.75 959,707.25 961.5,705.75 967,701.75 967.5,704.75 965,708.25 965,710.25 968,715.25 966.5,717.75 958.5,718.75 958,721.75 956.5,721.75 955,718.75 944,719.25 "
     style="fill:#ebcef2" /><path
     id="ON"
     d="m 548.407,598.16 -0.38,-0.5 -0.311,0.47 -0.103,-0.29 -0.116,-0.09 -0.352,0.47 0.352,0.03 -0.409,0.56 -51.088,67.44 -22,23 -0.5,78.19 0.027,0 -0.027,0.25 0,0.06 0.117,-0.021 5.263,1.601 1.62,10.92 3,2 7.5,0.5 2.5,2 3,0.5 5,-2.5 7.5,1 6.5,6.5 -0.5,1.5 5,-3 7,5.5 5,0.5 6,-5 1.5,0 2,3 9.5,0 2,1.5 4.157,-0.32 1.813,0.2 -0.063,-0.34 0,-0.01 0.593,-0.03 1.5,-3 0.5,-3.5 3.5,-3.5 2,2.5 2,-1.5 2.5,-8.5 2,0.5 -2,6.5 5,-7.5 -1.5,-3 1,-1.5 8,3.5 14,-1 6,3 0.5,3 9,10 7.5,0 6.5,-1.5 0,6 7,7.5 -2,6 5.5,2 -0.5,5 -1,3 6.5,-0.5 9,4.5 4.5,-1.5 11.5,0 15.5,-1 2,2 7,0 4,-3.5 10.5,11 4.5,2.5 0.5,2 7.5,8.5 -2.5,7.5 -5,0.5 -5.5,-3.5 -4.5,0 -3,-4.5 -5.5,-5 -5.5,1.5 7.5,8.5 1,6.5 -4.5,5.5 3,23 -8,7.5 -0.5,8 0.5,7.5 -9,4.5 2.5,5.5 9,0 0.5,-3.5 7,-5.5 2,-0.5 3.5,-7 3.5,-4.5 16.5,-1 3.5,-2 -4,-1 0,-2 4.5,-1.5 13,-5.5 4,0 0.14,-0.43 0.36,0.93 0.397,-3.2 0.103,-0.3 -0.063,-0.06 0.063,-0.44 -1.5,-1 -3,-5.5 0.397,1.05 -3.897,1.95 -7,1.5 -3,-2 5,-8 5,-6 17.5,-9 4.5,-1 0.5,1 7,-1.5 3.5,-2.5 -4.5,-2 1,-1.5 2.5,0 3.5,-3.5 2.09,-1.69 2.188,-0.22 0.689,-0.3 -0.13,-0.021 0.13,0.014 4.029,-1.78 3,-5.5 0.5,-3 2.5,-3 5.5,-8.5 4.118,-1.689 3.82,-0.777 0.063,-0.033 -0.11,-0.45 -1.89,-7.55 -1,-4.5 -7.5,-0.5 -14,10 -3.593,1.97 -2.851,0.84 -6.059,-1.31 -3,-5.5 -6.5,1 -7.5,-5 -16.5,0.5 -9.5,-5.5 -8.5,-8.5 -3.5,-8.5 -21.279,-78.95 -5.721,0.95 -8,-5 -9,-9 -2,0.5 -6,-7 -10,-10 -3,0 0.5,-9.5 -3,-9.5 -4.5,-11.5 0,-8 2,-1 -3.5,-8.5 -2,2 -4.5,0 -6,-1.5 -0.5,0.5 -24,2 -11.5,-6.5 -2.5,0.5 -8.5,-4 -6,0 -5,-1.5 -0.5,-2 -6.5,-8.5 -9.079,-5.68 -0.008,-0.414 z m 134.093,226.59 -2,-2 -2.5,1.5 -5.5,0.5 -2,2 -8.5,0 0.5,2.5 8.5,0 12,3 2.5,-2.5 -0.5,-6 -2.5,1 z"
     style="fill:#fffdc0"
     inkscape:connector-curvature="0" /><path
     id="NU"
     d="m 777.5,425.25 3,5 -3,2 -7,-4 4,-4 z m -21.5,35 -1.5,5 -2,3.5 3.5,2.5 3.5,-4.5 0,-6 z m -48.5,-34 6.5,6 3.5,-1 0,-2.5 z m -63.5,4.5 6.5,4 3,-1 0,-2.5 z m 0,-100 -3,-3 -2,5.5 2,3 6,-0.5 4,-2 -1.5,-3 z m -7,104.5 -2.5,3 1,2.5 2,1 3.5,3 3.5,-3.5 0.5,-4 z m 3,-172.5 -4,3 2,2.5 3.5,-2.5 -2,4 -3.5,-1 -1,-5.5 4.5,-4 -0.5,-2.5 -7.5,-5.5 -3,3 -1.5,7.5 -8.5,-10 -6,7.5 -1,-1 4.5,-6.5 -2.5,-6 -5,1 -0.5,-3.5 -6,-3 -2.5,2 -6,-3.5 -9.5,5 0,14.5 -1.5,0 -1,-8.5 -5,2 0.5,-3.5 -3,2 -1.5,10.5 -2.5,0 1.5,-10 -1,-6.5 -2.5,-7.5 -2.5,-1.5 -2.5,-0.5 -0.5,-4 -4,-6 -12,3 -3,5 -3,4 -1.5,7.5 -1.5,4.5 0.5,9 4.5,2 -4.5,8.5 4.5,5.5 5.5,1 0,10 -4,-1 2,-2.5 -11,-12.5 -4,-20 1,-8.5 6,-10 -4,-3 -9,1 -11,13.5 -1.5,7.5 -2.5,14 2.5,21.5 3.5,1.5 10,0.5 4.5,4 -5,1.5 -5.5,-3.5 -3.5,2.5 0.5,6.5 1.5,-0.5 7,6.5 0,2.5 8.5,0.5 1,-5 11,12 6.5,-7 2.5,2.5 11.5,-2 5.5,3.5 4.5,-3.5 3,3 3,-2.5 -3.5,-4.5 8.5,-1 2.5,3 7,-3 -5,-8 -3.5,0 0,-3 12.5,4 4.5,7.5 6,-2.5 1.5,3.5 -2,2 5,0.5 9,5.5 -1.5,4.5 -4,2 0.5,6.5 7,-5 1,-5 10,5 4.5,0 0,4 10,5 11,15 -1.5,1.5 -0.5,14 -8,11.5 2.5,3 8.5,4 0.5,5.5 -4,-0.5 -1,5 -4.5,0 -3,4.5 -8,1.5 -1,-1.5 -8.5,0.5 -1.5,2.5 0.5,2.5 2.5,3 -6.5,4 2,6 2.5,3.5 6,4 4.5,1 2,-3 7.5,-5.5 -2,-3.5 2.5,-2 8.5,2.5 0.5,-2 4,-6.5 2,7.5 1.5,-3.5 19,11 4.5,-1 3.5,0.5 0.5,8 5.5,3.5 2,-1.5 12.5,1.5 2,-2 3,0 2,3.5 8.5,3 10,-2.5 13.5,0 3.5,1 2.5,-5.5 -4.5,-3.5 -7.5,-4.5 -13.5,-4.5 -5,-1 -12,-8.5 4,-4 8,6.5 4.5,-1 9,4.5 9,-2.5 5.5,1.5 3,2 0.5,-2.5 -1.5,-3 -0.5,-4 -3.5,-3 -4,-5.5 6,3 0,-4.5 -7,-4.5 0,-3 -10,-3 3,-1.5 -2.5,-4.5 -3.5,2.5 -5.5,-7 -2,2 -6.5,-1.5 -11,-9.5 -4.5,2 -1,-2 -4.5,-4 1,-3.5 3,3.5 4.5,-3 -1.5,-2 -4,-1 -3,-4 4.5,0.5 -3,-4.5 5,-2.5 5.5,5 8.5,3 4,-4.5 -2,6 5.5,2 3.5,4.5 5,4.5 5,-4 5,2.5 0,-5.5 -4.5,-11 3,0.5 3.5,-6 -1.5,-8 -4.5,0 0,-4.5 4,-0.5 0.5,-1.5 -2.5,-3.5 3,-3 -11.5,-3 -6.5,6.5 -1,-9 -6,6.5 -2.5,-1.5 -3.5,-7 -6.5,-1.5 -3,3 1.5,-5.5 -1.5,-2 -7.5,8 -8,-1 -4.5,-7 -3,1 -15,1 0,-2.5 5,-0.5 2.5,-2 -2.5,-7 -3,-1 7,-1.5 3,-3.5 -1,-2.5 -10,1.5 -4.5,0.5 0.5,-3 6.5,-5.5 -8,-7.5 -2.5,0.5 0.5,5 -3,1.5 -2.5,-2 -5,4.5 -1.5,-1.5 9.5,-9.5 -1,-2 -10,-2 -3,4.5 -2,1 2,-4.5 -6,5 -0.5,-8 -3,-1 -1.5,6 z m -6,71.5 1.5,-5 -8.5,-0.5 -6.5,3.5 0.5,17 4,3.5 6,-1.5 6,0.5 2.5,-7 -1.5,-5.5 z m -5,-14.5 2.5,6 3.5,2 0.5,-1.5 z m 2,141 -6.5,4 -0.5,7 7,10 3.5,-2.5 -0.5,-10.5 z m -17.5,-152.5 -4,3.5 3,4 3.5,-5 z m -3.5,121 -1.5,3.5 -5,-0.5 -2.5,3 -1.5,-0.5 3,-4.5 -6,-9.5 -6.5,-2.5 -9,-6 -4,0 -5,-5 -2,0.5 -0.5,5 -2,0.5 -7,-14 -4.5,2.5 0.5,10 2,2.5 -1.5,24.5 -7,11 1.5,3 12.5,-5.5 2.5,1 0,4.5 2.5,6.5 6.5,-4 4,-8.5 1.5,-1 4,-3 -2,-4 3.5,-4.5 4,2.5 4,1 3,3.5 4.5,1 6,3 7,-7.5 0.5,-3.5 z m -11.5,27.5 -4,3.5 -3.5,-2.5 -1,5.5 -4.5,7 4,4.5 2,0.5 4,0 5,-2 -1,-2 6.5,-9.5 -1,-6.5 z m 1,-150 -2,5 7,-6 z m 0.5,6.5 -1.5,12.5 4,-4 0,-8 z m -16.5,-92 -6.5,0.5 -5,2 -8,-1 -0.5,2.5 2.5,7.5 3.18,2.48 1.32,1.02 2.5,8.5 5,-1 1,-4.5 4.5,-2.5 9.81,-0.7 4.19,-0.3 -1.5,-3.5 z m 5,86.5 -2.5,0 -2.5,3 4.5,2.5 5.5,-4.5 0,-2.5 z m -11,89.5 -7.5,-3 5,8 6,0 0.5,-2 z m -1,-363.5 -3.5,2 -6,11.5 -3,0.5 5,-10.5 -5,2.5 -1.5,-1 8,-3.5 6.5,-11 -1,-11.5 -2,-3 -4.5,1 -4.5,-5.5 -4.5,0.5 -3.5,8 -3,0 2.5,-4 -1,-3.5 -4,2 -7.5,-0.5 -1,2.5 -3.5,0 -2.5,4 -9.5,-1 -0.5,4 2.5,2.5 0,1 -9,-1 -4,5 2,3.5 -3.5,-1.5 -0.5,7.5 1.5,2.5 -3.5,1.5 -7,-6 0,5 -3.5,2 6.5,5 -5,0.5 -2,-1.5 -3,0 -2.5,5.5 -1.5,-1.5 -8.5,6.5 3,3.5 3,-2.5 1.5,0.5 -2.5,4 4.5,4 -2.5,2.5 1,3 11,-3 5.5,-5 -3.5,7 -9.5,2 0,2 8,4 2,-5 1,6.5 9.5,-1.5 0.5,-2.5 2.5,-0.5 1,3 9.5,-7 2,-4 5,0.5 -6,9.5 -9.5,6 0.5,2.5 6.5,4.5 -1,2.5 4,4.5 -3,-0.5 -3,-4.5 -2,0 -5.5,-6 -11,0 0,3 1.5,3 1,4.5 6,4 2.067,3.91 2.433,4.59 0.5,5.5 8,1 1.5,-1.5 2.5,1.5 -5,5 -3,-3 -9.5,0.5 -4,3.5 -0.5,3.5 -2,3 0.02,0.35 0.48,8.15 2.5,0 2.5,-2.5 2,2 1.5,0 2.5,-1.5 -1,4.5 1.5,4.5 6,4 2.5,-2.5 1,-3.5 1.5,3.5 -0.5,2.5 -4,2 -6.5,0.5 -2,-3 -3.5,-5.5 -7,0 0,3.5 1,2 1,5.5 3,1 0.5,1.5 -3,3.5 -2,-0.5 -5.5,7.5 1,7 -0.5,2 6,0.5 2,1 6,-4.5 3,2 9,3 -1,-3.5 1,-2.5 7,-1.5 1,3 3.5,-2.5 -0.5,-3 6.5,0 0.5,7 1.5,1 11.5,-11.5 1.5,-6 -3,-5.5 -2,1.5 0,2.5 -1,1 -3.5,-3 1.5,-2.5 -1.5,-2.5 -3,2 -10,0.5 -1,-8.5 3.5,4 7.5,1 7,-6 -3.5,-8.5 3.5,-2 1.5,1 6,-5.5 -4.5,-2.5 4.5,-1.5 -1,-4 -4,-3 4.5,0 -1,-6 -4,-2 -1.5,-2 -5,1 2,-4 8.5,-1 -3,-3.5 -12,3.5 6,-4.5 3,-0.5 6.5,-6.5 -1.5,-4 3.5,2 4,-6 0.5,-6.5 -6.5,3 5,-6.5 -0.5,-3 2.5,-1 4,-15.5 1,-6.5 2.5,-7.5 z m -10,371 3.5,-1 -6,-7.5 z m -5.5,-210 0,-2.5 2,-5 -3,-2 -4,0 0.5,-3.5 -5,-0.5 -2.5,-3 -12,3.5 -3.5,5.5 -5.5,1 -2.5,2.5 0.5,4.5 -5,-5 -7.5,1.5 0,-3 -3,0 -0.5,4.5 -1.5,-0.5 0.5,-4.5 -3.5,-4.5 -6,0 -2,-1.5 4,-4 4,-1.5 -7,-3 0,-2.5 -4.5,-3.5 -3.5,-0.5 -3,4 -1.5,-1.5 -3.5,-6 -3,0 -9,-4 -4,3 -0.5,4 7,9 1,-1.5 -1,4.5 10,-1.5 3.5,-1 1,6.5 4,4 1,6.5 -3,7.5 4,2.5 -0.5,7 2,0 3.5,4 3.5,-0.5 5.5,2 4.5,-6.5 3,1.5 -1.5,4 15.5,0 4.5,-1.5 3,-2.5 6,0 3.5,-4.5 8,4 3.5,-4 3,0 1.5,-7 2.5,-1 0,-3.5 z m -21.5,157.5 3.5,7.5 2,-1.5 -1,-8.5 z m -3.5,-43.5 -3.5,3.5 6,0.5 0.5,-1.5 z m -43,-79.5 -7.5,-5.5 -7.5,2 -3,4.5 2,3.5 -5.5,-0.5 1,3.5 -1,18.5 4,8.5 1,7.5 5,1 5,-11 -2,-5 2,-2 4,2.5 3.5,0.5 6,-8.5 0,-4.5 5,-9 -3,-8.5 z m 11.5,-147 -4.5,-1 2,2.5 0,5 -1.5,0 -3.5,-8.5 -3,0 -1,-4 -8.5,-14 -6,-0.5 -1,2.5 4.5,2.5 -3,4 -2,-2 -2.5,0 -0.5,5 3.5,3.5 0.5,2 -5,0.5 -2,8.5 2,-0.5 4,6.5 -6,-4.5 0,9 3,3 -0.5,4 2.5,4.5 10,-2.5 -7,7 5.5,10.5 4,0.5 -2.5,3.5 7,5.5 3.5,-0.5 1,-2 4.5,-2.5 1,3 2,0.5 0.5,-6 2,-1 -0.5,-3 4,-9 6.5,-3.5 -0.5,-7.5 -7.5,-4 -2.5,-7.5 -2.5,-2.5 z m -5,80.5 2,11 2.5,0 -1.5,-7 z m -3.5,-18.5 -2,3 0.5,4 4,4.5 4,0 -0.5,-5.5 z m -18.5,47 -4.5,2 -2,5 -4.5,7 11,9 7.5,-1 0,-14 z m 0,-48 -1,1 -4,-1.5 -3.5,5.5 11,1 3,1.5 2,-6.5 z m 0.5,41 -2.5,1 3,4 3.5,-1 z m -2.5,-56.5 -3,-1 -1.5,-2.5 -8,-4 -2,0 1.5,4 -1,6.5 5,5.5 -3.5,-0.5 2.5,6.5 5,-0.5 7,-4.5 -3,-7 z m -5,196.5 -2.5,3 4,3.5 2.5,-3 z m -1,14.5 0.5,-4 -6.5,-7 -0.5,-3 -8.5,-7 -5.5,6 -1,7 -1.5,2.5 -4,-1 -2,4 3,3.5 21.5,10 9.5,-8 -1.5,-2.5 z m -0.5,-147.5 -5,3 2,3.5 6,-4.5 z m -5,54 -2,4 3,2.5 3,-3 z m -2,7.5 -1,-4 -5.5,1 0,-3 5.5,-5.5 1,-4.5 2.5,-0.5 -3.5,-6.5 -11,4 -1.5,-0.5 -1.5,-5.5 -7,1.5 0.5,6 -4,1.5 -0.5,6 5.5,4 -2,8.5 -2.5,-2 -5.5,-8.5 -4.5,7 4,8 1,2.5 8.5,9 3.5,7.5 0,3.5 7,5 3,-3 0.5,-5.5 1.5,0 1.5,1.5 8.5,-5.5 -0.5,-3 -0.5,-6.5 2,-4 -5,-6 z m -0.5,-79.5 -4,-5 -2.5,5 -2,0 -1,-5 -7,5 3.5,2.5 0,3.5 2.5,6.5 -3.5,-3 -4.5,-10 -3,1 -0.5,7 3.5,6.5 -4,-3 -6,7 18,-1.5 -0.5,2 -6.5,6 3.5,8.5 4.5,-2 3.5,1.5 5.5,-4 1.5,-5.5 1,-3.5 -1,-5 1,-2.5 0,-8 z m -5,-84 -1.5,4.5 3.5,5.5 3,0 -0.5,-8.5 z m -1,136.5 -5,2 1,3 9,-3.5 -1,-1.5 z m 1,-104 -6,-3.5 -2.5,-6.5 -4,3 -1,-5 -4.5,-6 -6.5,3 0,4.5 7,10.5 -0.5,2.5 -4,-2 -3.5,2 2.5,5 5,-0.5 8.5,3 1,1.5 0.5,6 5.5,4.5 3.5,-2 -2,-12 z m -14,47 2,2.5 6,-5 -2.5,-3 z m -2.5,-28.5 2.5,3.5 5.5,0.5 -0.5,-2 z m -6,41 -4,4.5 4.5,0.5 4,-4.5 z m -2.5,155.5 2.5,5 2.5,-2.5 -1.5,-3.5 z m -5,-161 1.5,4 7.5,-2 0,-2.5 z m -1.5,-8 2.5,3 0,2.5 5.5,0 0.5,-2.5 -4.5,-5 z m -1.5,-28 0.5,6.5 0.5,5.5 4,2.5 1.5,-1.5 -3.5,-12 z m 2,52 -3.5,0 -0.5,3.5 -2,3.5 3.5,2.5 5,-0.5 -2,-4 z m -6.5,149 3,3.5 2.5,-2.5 -3,-3.5 z m -12.5,-113 -5,4 8.5,15 8,-12.5 -5.5,-6.5 z m 3.69,-113.69 -2.64,9.02 -0.05,0.67 0,0.5 3,1.5 2.5,-2 1,-3.5 -3.563,-5.78 z m -13.69,229.19 3.5,2.5 1.5,-1.5 -2.5,-4 z m 0.948,-179.43 -0.68,3.19 -0.13,0.69 2.358,3.55 1,3 -3,-0.5 -2,2.5 7,9 -2.498,0.5 -5.75,-2.87 -3.239,15.84 6.989,-1.97 3,4 4,-0.5 2.5,1.5 6,-2 4,-4.5 0.5,-2.5 3,-6.5 0,-5.5 -4,-4.5 -3.498,0 -2.5,2 -4,-4 -1.5,-1 3,-2 -1.5,-5 1,-5 -0.5,-4 -2.5,-1 -3.5,5.5 -3.32,1.94 z m -2.448,1.43 1.64,2.45 0.13,-0.69 0.68,-3.19 z m -6.5,166.5 -7.5,3.5 -10.5,0 -4,6.5 4.5,3 3,-2.5 3.5,1.5 8.5,-1.5 2,-3 2.5,1 0.5,3.5 2.59,0.58 0.91,-4.08 -3.5,-8 z m -75.93,-44.05 -0.068,0.05 0,7 3.5,7.5 5,5 10.5,5 -1,4.5 3,10.5 10,4 17,2 11.5,-5 8,0.5 7,-5.5 0.5,-2.5 1.5,0.5 0,3.5 8.5,5.5 2,-1 -3.5,4 3,2 8,0 3,2.5 8,-0.5 4.5,-3 0.5,-6.5 -1,-2.5 -3,-1.5 -4,3.5 -2,-7.5 5.5,3 1,-3 3.5,-2.5 1.5,-2 0.5,5 5.5,-3 -1,4.5 3.5,-3 0.5,-8.5 -4,0.5 -4,-3.5 -6,-7 -2.5,0.5 -4.5,-8.5 -3,-7.5 3.5,-4 -3,-7.5 -1,-27 -8,-9.5 -2.5,1.5 -2.5,-4.5 -2,1 -3.5,27 2,6 -4.5,5 -0.5,-7 -1.5,-1.5 1.5,-3.5 -1.5,-5.5 1,-5 -1,-2 -5.5,-10.5 -1,0.5 -0.62,-0.1 -2.38,-0.4 0,2.5 1.8,1.8 0.2,0.2 1,-0.5 0.5,2 -2.83,3.31 -12.67,56.19 -52.44,-15.82 z m -26.24,0.41 -0.053,0.11 -0.22,0.47 -14.53,31.03 -0.027,0.03 49.499,73 16,4 8,16.5 64,24 -8.909,90.66 0.63,0.5 0.5,0.5 20.279,2.34 31.5,1.5 24.528,0.5 0.25,0 0.021,-0.29 0.199,0.29 2.5,-7 -0.5,-3.5 3.5,-2.5 5,-17.5 -1,-2 6,-5 -3,-2.5 13.5,-12.5 -2,-2 5.5,-1.5 -4.5,-4 1.5,-2 8,0.5 5,-5.5 1,-4.5 -12,-8 -3,1.5 -12,-7 -4,1 4,-4 11,6.5 6,-0.5 8.5,4 6,-2.5 1.5,-8 3.5,-1 6,1 8.5,-6 1,-7 2.5,-3 3,-12.5 -17.5,-1 -9.5,-8 -7.5,-2.5 0,-2 10,1 11,7.5 10.5,1 8.5,-10.5 -0.5,-1.5 2.5,-5.5 -2,-2.5 -6,-2.5 -0.5,-4.5 10,1.5 3,3.5 5.5,1 1.5,-3 5,2.5 2.5,-0.5 -3,-4 0,-3.5 3.5,3 6.5,-4 5.5,-12.5 2.5,0 -0.5,-11.5 -6,-4.5 -9,-13.5 0,-2 4.5,0.5 4.5,-7 -4,-5 1.5,-3.5 -4,-2 -4.497,0 -2.5,-3 -1,-4 -11,0.5 -5.5,-1.5 -5.5,1.5 1.5,11.5 6,4.5 -1,5.5 1.5,1 -2,1.5 -2.5,-1.5 -2,1.5 2,15 -3.5,5 -0.5,10.5 -4.5,0 1,3 -4,2.5 0.5,-2.5 -10.5,-15 0,-10 2.5,3.5 3.5,0 -2,-6.5 -8.5,-11 -3,-3 -5.5,4.5 1.5,9 -1.5,1.5 1,7.5 -3.5,0.5 -3,-14 -4.5,-7.5 4,-5.5 -2,-1.5 -6,-1 -3,3 -4.5,-5 3.5,-7 -3,-3 4,2.5 2.5,-2.5 -4.5,-4 0.5,-2.5 -5.5,-5.5 -2,-12.5 -8.5,-10.5 -2,2 -2,-4.5 -3,0.5 -0.5,3.5 -4.5,3 3.5,2.5 -2,4 -2.5,-2.5 -3.5,3.5 1.5,2 0,5.5 -2,3 4.5,3.5 -2,2 -3,3 0.5,6.5 11,11.5 2.5,-1 4,5 3,-2 1.5,4 -4,-1.5 -1.5,4.5 -3,7 3.5,3 2,-2 1,-4 1.5,0 0.5,10.5 -2,-0.5 -5.5,10 -6,1.5 -2,2.5 2,7 0,8.5 -1.5,0 -3,-3.5 -3,2 1,-4 -1.5,-2.5 1.5,-4.5 -0.5,-9 2,-2 -3,0 -8,-3.5 -4.5,-4 0,3.5 -6,1 2,4 0.5,4 5,1.5 1.5,0 3,4.5 -3,1.5 -9,-7.5 -1.5,4.5 -5.5,-1 -4,-2.5 -5,0 -2.5,3 -11,-0.5 -11.5,-11 -2,2 -4.5,-2.5 -0.5,-1.5 -5.5,-5 0.09,-0.42 -2.59,-0.58 -18.5,6.5 -3.5,3 2,6.5 1.5,9.5 1,5 -1.5,0 -2.5,-3 -2,4 -3,-2.5 2,-7.5 -5,-10 -8,-10 -6,3 -2,-1.5 -12.5,-1 -20.5,-8.5 -1,-3.5 5.5,-4 1.5,1.5 5.5,1.5 2,-4.5 -2.5,-9.5 -7,-7 -7,0 -11.5,-7.5 0,-3.5 -10.92,-11.83 -0.58,-1.17 z m -0.05,-0.05 0,0.16 0.053,-0.11 z"
     style="fill:#e8f2ad"
     inkscape:connector-curvature="0" /><path
     id="NS"
     d="m 1000,690.75 3.5,4.5 -4,2 1,7 -14,8.5 -8,-6.5 1,-21 1.5,-2 -1,-3 1.5,-2 5.5,5 1.5,2.5 -0.5,8.5 4.5,-3 1.5,1 7,-2.5 -1,1 z m -12.5,27.5 -0.5,-1.5 -4.5,-3 -3.5,3 -2,-2 -2,0 -6,8 -6,-0.5 -3,1.5 -0.5,2.5 -4.5,-1 -3,0.5 -3.5,-1 -0.19,0.5 -0.869,1.19 -0.03,-0.014 -3.41,6.82 -4,12.5 1.5,-0.5 7,-5 7,-4 3.5,0.5 0,1 -3,1.5 -4,4.5 -1.5,3 -1.501,0 -1,-3.5 -1,0 -7,9.5 -1,3.5 -9.5,16 3.5,1 -1.5,6 7,7 2.5,-1.5 4,2 0.5,3 5.5,-3.5 0,-3 3,-3 6,-17.5 -1,-1.5 -2,-3 3,-3.5 3.5,1.5 4,-3.5 -1,-3 4.5,-3.5 4.5,-5 10.5,-15.5 4.5,-4.5 4,-3 0,-1 -7,1.004 z"
     style="fill:#e8f2ad"
     inkscape:connector-curvature="0" /><path
     id="NT"
     d="m 410,113.75 0.188,0.31 -2.64,9.02 -0.05,0.67 -3.5,-0.5 0,-1 -1,-0.5 -1.5,1.5 -3,-2 -5.5,-2.5 1.5,-2 7,-0.5 6,-3 2.502,0.5 z m -7.5,28.5 0,-9.5 1.987,-0.85 1.513,-0.65 1.5,-3 -12,-0.5 -5,2.5 -0.5,3.5 -2,3.5 4.5,5 9.55,0 0.45,0 z m -9,40.5 -1.03,-0.36 -4.47,-0.64 0,-5.5 -3,-2 1.5,-2 -2.5,-2.5 0,-3 -5.5,-3.5 0,-2.5 -2.5,-3.5 -7.5,-0.5 -2,2.5 -0.5,0 -5.5,6.5 4,3.5 -4.5,-1.5 -4.5,3.5 6,4 -8.5,-1 -2.5,2 6.5,7 1.5,2.5 8.5,3 2,-3.5 2.5,0.5 -1,3.5 14,0 0,3.5 -7.5,-2 -7,3 -4,0.5 -1,4.5 6.5,5.5 4,0 14.287,-4.33 0.4,-1.11 0.32,-0.09 3.238,-15.84 -0.039,-0.03 -0.206,-0.1 z m -10.5,-58 1.5,4 -0.5,3 5,-2.5 -3,-6.5 -3,2 z m -7,24.5 1.5,4 5,0 1,-2 -7.5,-2 z m -4.5,-18 -1.5,3 -1.5,0.5 -3.5,-3.5 -4.5,0.5 -12,9 -6,0 -0.5,4 -3.5,-1 -6.5,3 0,6 6,2 3,-0.5 -0.5,4 5,1.5 3,-1.5 0,-2.5 3.5,0 9.5,-11.5 0.5,1 -4,6 3,6 3.5,-4 6,-1.5 0.5,-5.5 1.5,0 0,-3 -0.5,-3.5 2.5,1 2,-1.5 -2.5,-8 -2.5,0 z m -21.5,32 -6.5,2.5 3,5.5 11.5,-10.5 0,-1.5 -8,4 z m -9,35 -6,-0.5 -4,-2 -4,-4.5 -1.5,-8.5 -8,0.5 -4,-2 -7.5,-1 0,4.5 -3,2.5 1.5,7.5 -28.5,27 8.5,16 -0.5,2.5 -2.5,5 1,3 8.5,0 3.5,-2.5 1,2 7.5,1.5 8,-13 6.5,-2 4,-4.5 18.5,-9 5.5,0.5 4.5,-4.5 -4.5,-14.5 -4.5,-4 z m -150,36.5 -2.5,-1.5 -4,1.5 -6.5,0 1,1.5 1,5 1.5,1.5 4,0 13,-5 -3,-5.5 -4.5,2.5 z m -34,24.5 -0.5,3 -5,8 -2,0.5 6.5,4.5 8.5,8.5 -3,9 -7,10 1,1.5 2,0 2,3.5 4.5,0.5 -3.5,11 -2,-0.5 -5,2.5 -1.5,1.5 0.5,2.5 -4,5 2.5,4 -2,3 2,2.5 -1.5,1 5,5 -0.5,2 -2,7.5 5,3.5 -3,3 1.5,7 -5.5,1.5 1.5,6.5 -3.5,3 0,10 -1.5,3.5 -2,2.5 2,3.5 4.5,0 2,17 3.5,4.5 -4.5,6 -0.5,7 4,2 5.5,0.5 3,4 9.5,2 1.5,2.5 -3,1 1,17.5 40.607,18.09 -0.04,0.104 32.933,12.806 37,11.5 31,9 39.5,8 33.5,5 12.5,1 0.72,-0.34 -0.63,-0.5 8.91,-90.66 -64,-24 -8,-16.5 -16,-4 -49.5,-73 0.027,-0.03 14.53,-31.03 -0.17,-0.53 0.17,-0.41 -0.49,-0.54 -10.067,-10.96 -4.5,-1 -2,2.5 -4,3 -4,-0.5 -2,-2 3,-6 -0.5,-4 5,-6 -1.5,-1.5 -7,6 -3.5,2.5 -3.5,4.5 -3,-2 -0.5,-8.5 1,-14.5 -1.5,-5.5 -3.5,1 1,6 -7,0.5 1,3.5 -4.5,1.5 0.5,-3 -12,-2.5 -4.5,2.5 -2.5,0 0,-2 -6.5,-0.5 -10,2.5 -3,3.5 -3,-3 1,-3 18,-2.5 2,1 19.5,-1.5 -3,-3.5 -3.5,-0.5 -3,-2.5 -7.5,2.5 -12.5,-3.5 -3,4.5 -5.5,-2.5 -4,2.5 -8.5,1 -2.5,-2 -3.5,2.5 -0.5,-3.5 -1.5,-3 -1.5,-1 -0.48,0.9 -0.02,-1.4 -16,21.5 z m 220,-12 0.027,0.18 -0.17,0.07 -5.857,2.25 -4,0.5 -0.5,-1.5 3.5,-1 0.5,-4 -6,-8.5 -3.5,-2 -5.5,7 -5.5,-0.5 8,-6.5 -3,-10.5 -12.5,4.5 -2.5,-1 -6,1 -10,7.5 -0.5,6 -2,-1 -4,4 -2,0 -2.5,3 1.5,2 2.5,1.5 1.5,2 -2,2 2.5,3 8,1 9.5,1 -0.5,2 -20,0 -4,5.5 2.5,6 6,2 6.147,3.95 -0.371,0.222 5.724,1.828 10.5,0 -1,2 8,4.5 5.5,7 -7,0.5 -10,-6.5 -12.5,-3 -14,0.5 0,1.5 0.577,0.17 -0.02,0.01 52.44,15.82 12.671,-56.19 -0.168,0.19 z"
     style="fill:#fffdc0"
     inkscape:connector-curvature="0" /><path
     id="NL"
     d="m 988,634.75 -2.5,2 -0.5,1 -3.5,2.5 -3,-1.5 3,-4 4,0 -1,-3.5 0,-8.5 3,-1.5 -2,-1 -4,-4.5 1,-7 -5,-19 -1,-7 0.5,-13.5 4,-13 2,0 0.5,-2 4,0 0.5,4.5 -4,4.5 1,2.5 3,-3.5 1,2.5 1,8.5 -1.5,-1.5 -2,1 4.5,5.5 1,15.5 4.5,6.5 -1.5,-6 2,-3 -1.5,-5 3,-0.5 1,0.5 4,-1.5 2.5,-2 1,2.5 -1.5,3.5 -2,3.5 8,2 3.5,-2.5 1,-2.5 3.5,4 4.5,-6.5 0,-2.5 10.5,-5 4,0.5 1.5,1.5 -1.5,8 1.5,1.5 4,-0.5 2,2 -0.5,3.5 4.5,-2 -0.5,-3.5 2.5,-3 0,-2.5 2,0.5 1,8.5 -1.5,1.5 0,1.5 -4,5 0.5,0.5 4.5,0 1.5,2 -1,2.5 5,3 1,0.5 -1.5,-2 0,-13 2.5,-2.5 2,1.5 -1,3 1,2.5 -0.5,6 2.5,2 2,-3 1,-6.5 6,2 1.5,10.5 2.5,7 0,2.5 -2.5,2.5 -1,3.5 -5.5,-5 0,-4 -2,1 -1,8.5 -2,1 -3,-3 0.5,-3 -3.5,-6.5 -4.5,-5 -2.5,0 -1.5,1 2.5,10.5 -3.5,4 1,9 -0.5,2 -7.5,6.5 -2.5,-2.5 3,-6.5 1,-8 2.5,-3.5 -3.5,-2 -4,4 1,4 -5.5,2.5 -0.5,-4 -2,-1.5 -1.5,1.5 -1.5,2.5 -5.5,5.5 -2,4 -4.5,2.5 -3.5,-0.5 -5.5,4 -2.5,0.5 -4.5,3.5 -6,6.5 -3.5,1.5 -3.5,0 0.5,-2.5 -3.5,-2.5 3,-6 0,-8.5 1.5,-1 -1.5,-2 z m -180.25,-171.5 -3.633,-1.59 -10.93,-10.603 1.14,1.5 -0.327,-0.31 -1.383,0.52 -4.47,-2.438 28.853,23.921 -4.5,4.5 4,5 -3,4 1,3 8,3.5 4.5,1 3,4.5 -1,3.5 3,1.5 -1.5,3.5 3.5,3.5 -2.5,4.5 6.5,5 -2.5,0 4,6.5 5,-1.5 -1.5,2.5 6.5,8 -2,2 4.5,-1 1,5 3,6.5 -3,1.5 4.5,4.5 -5,2 -3.5,-1.5 -4,3 -3,-2.5 -7,7 -10,-1 -8.5,-3.5 6,6.5 0.5,5 -12,-4.5 3,4 6,4 -2,4 -5,3.5 4.5,3 -0.5,4.5 10,7.5 2,-1 5.5,8 -4,2.5 2.5,3 8,3 1,-2 -2.5,-4 2.5,-3.5 5.5,6 -0.5,2 2.5,3 -1.5,2.5 2,2.5 1.5,-2.5 3.5,2.5 6.5,-1.5 0.5,-2.5 7,5.5 4.5,-2 4.5,4 3.5,-4 -3.5,-9 -1.5,-7 -2.5,-4 0,-3.5 2.5,-5 3.5,2 -4.5,4.5 0.5,3 6.5,4.5 2,3.5 77,-47 7.287,9.71 0.2,-0.29 0.013,0.36 3.25,-2.78 3,-11.5 1,-9 -2.5,-4 -2,-4 -3.37,0.96 -0.21,-0.07 -7.92,-11.39 -8,-3 -6.5,-0.5 -3.5,3.5 0,5.5 -2.5,-1.5 -1,-5 -6,-5 -9,7 1.5,2 -6,8 0,6.5 -2,1 -6.25,12.5 -0.28,-0.271 -0.47,-12.229 7.5,-12 0,-4 9,-12 -0.5,-4.5 -6.5,0.5 -2.5,-2.5 -2,1.5 0,4 -4,1.5 -9,-3 -3,3 -4,-2 -3.5,4.5 -5.5,1 1,-4.5 -4,-5 -7.5,2.5 -4.5,-2 -2.5,2 0,-3 -3.5,-1.5 -3,2 -5,-4 -2,-6.5 1,-7.5 -1.5,-1.5 -5,0.5 -1,-2 -6.5,-1.5 2.5,-3.5 -2.69,-3.94 c 0,0 -0.021,0 -0.029,0 -0.479,0.813 -5.09,0.94 -5.779,0.94 l -0.5,-3.5 -5.5,-2 -1,-2.5 -7.068,2.83 -0.239,-0.21 1.813,-3.62 -2,-5 -2.5,0.5 -6.5,-5 -3,-0.5 -2.008,-1.5 z"
     style="fill:#fffdc0"
     inkscape:connector-curvature="0" /><polygon
     id="NB"
     points="891.46,701.941 891.84,701.42 892.559,701.22 902,700.75 904.5,704.25 907.5,703.75 910,698.75 915.5,695.75 917,699.25 918,706.25 918,708.75 916,712.75 918,713.25 919,711.75 922.5,712.25 925,717.75 927.5,717.25 934,723.75 937,722.75 948,722.75 947.5,726.25 947.21,726.39 947.407,726.43 944,733.25 943.69,733.04 942.96,733.09 942.5,733.25 942.59,733.12 941.75,733.18 939,734.75 937.5,740.75 935.5,743.25 933.5,745.25 929.5,751.75 926.5,756.25 923,756.75 922,760.75 914.5,764.75 912,764.75 909.5,767.25 905,766.75 902,763.75 900.5,759.25 894.5,758.75 891.5,753.25 883,734.75 881.5,732.75 875.5,728.75 871.5,729.25 864.5,734.25 861.94,733.821 869.407,727.04 864.309,730.59 865.5,729.25 861.88,732.531 861.559,731.941 860.5,733.75 860,730.75 858.019,730.75 857.34,732.45 856.57,732.14 863.5,709.25 890.787,701.71 891,702.25 891.198,701.75 "
     style="fill:#fffdc0" /><polygon
     id="MB"
     points="491.5,561.25 494,559.25 498.5,560.75 497,566.75 501,571.75 505.5,592.25 504,595.25 511,597.75 521,591.25 530,592.75 537,597.75 546.84,598.21 546.94,598.22 547.28,598.031 547.117,598.22 547.15,598.22 547.5,598.25 547.09,598.81 496,666.25 474,689.25 473.5,767.441 473,767.34 473,775.75 461.5,775.75 419,774.25 383.657,771.31 383.5,771.75 383.25,771.281 383,771.25 390,615.25 393.72,583.191 396,569.25 395.34,569 400,528.75 400.72,528.41 401.22,528.91 421.5,531.25 453,532.75 477.53,533.25 478,548.25 477,553.75 480.5,557.75 480.5,560.75 "
     style="fill:#ebcef2" /><path
     id="BC"
     d="m 209.5,480.75 -51.5,125.5 0.62,-0.38 2.88,2.88 2.38,1.56 -4.38,2.474 5.06,6.026 -0.938,1.53 5.1,2.53 -1.939,4.04 5.602,7.03 -0.44,8.526 3.592,2.53 0.131,5.28 2.59,1.25 3.63,5.276 0.12,5.75 4.62,1.28 -0.37,8.75 3.59,6.78 2.47,4.13 -1.06,4.13 4.47,7.62 4.44,5.12 -1.07,9.63 -3.03,11.63 3.94,7.62 0.5,6 L 169,724.75 l -29.5,-11 -37,-15 -22.38,-10.75 0.147,-0.38 0.07,-1.24 -2.34,0.87 -6,-2 2,-3.5 -0.5,-5.5 -3.5,-2 -1,-6 2,-0.5 -0.5,-4 -5,-1 -2.5,-8.5 2.5,-1 0,-4 -6,-7.5 -2,0 -8.5,-5.5 4.5,-5 -8,-8.5 -3,2 -4.5,-10.5 8,-7.5 -3.5,-1 2,-7 15,-3.5 0,-5 -11.5,1 -2.5,-7 2.5,-1.5 3,-3.5 -1.5,-2 0.5,-6.5 -1,-7.5 9.501,-7.5 -9.5,-1.5 -3,4.5 -1.5,-0.5 -1.5,-15.5 1.5,-2.5 -2.5,-6 14.5,-10 0,-3 3,-2.5 4,-9.5 4,-2 1,-4.5 -3.5,-2.5 -1,-5 -6,-11 -2.5,-1.5 1,-3.5 -1,-3.5 3,-3 -2,-2.5 3.5,-2.5 1.5,-27.5 1,-1.5 -2.5,-16 2,-2.5 -2,-5.5 -1,-4.5 2,0 -0.5,-8 -9,-2.5 -3.5,1.5 -2.5,4 -3,-0.5 -2,-1 -8,-0.5 3,-6.5 -2,-22.5 0.5,0.44 0,0.06 L 58.75,395 95,420.25 l 34,20.5 44,22.5 40.607,18.09 -0.04,0.104 -3.067,-1.192 -0.25,0.78 z m -148,184 5,7.5 1.5,-4 -5.5,-8 z m -4.5,1 -0.5,-21 -8.11,-7.88 -9.39,-9.12 -2.5,-6 -7,-6 -3.5,0.5 -1.5,4 3,5 6,0 -0.5,2.5 -4.5,0.5 -3,4.5 7,6 -1.5,1 2,4 4,1 0.5,7.5 -2,0 -0.5,2 1.5,3.5 3.5,0 1.5,8 -1.5,2 3.5,5.5 4.5,-1 0.5,2.5 -2,3 8.5,11.5 7,4 3,-5.5 1,-11.5 -1.76,-2.06 z m -12,-72 0,2.5 12,-1.5 -0.5,-2.5 z m 5,-37.5 -1.5,3 5.5,-2.5 z m -10,15 0.5,3.5 3.5,6.5 5,-8.5 -2.5,-8.5 z m -1,-26 2,15.5 1.5,-3.5 -2,-13 z m -1,-5.5 -4,0 3.5,4.5 3,-2 z m -1.5,33 -1.5,5.5 4,0 0.5,-5 z m -1.5,-25 -3,3 3.5,9 2.5,-2.5 -2,-7 z m -4,101 4.5,3 -1,-6.5 z"
     style="fill:#ebcef2"
     inkscape:connector-curvature="0" /><polygon
     id="AB"
     points="310.06,529.191 309.5,535.25 257.61,750.281 257.5,750.75 221.5,741.25 200.5,735.25 200,729.25 196.06,721.63 199.09,710 200.16,700.37 195.72,695.25 191.25,687.63 192.31,683.5 189.84,679.37 186.25,672.59 186.62,663.84 182,662.56 181.88,656.81 178.25,651.531 175.66,650.281 175.53,645 171.94,642.47 172.38,633.941 166.78,626.91 168.72,622.87 163.62,620.34 164.56,618.81 159.5,612.781 163.88,610.31 161.5,608.75 158.62,605.87 158,606.25 209.5,480.75 210.25,481.031 210.5,480.25 213.57,481.441 246.5,494.25 283.5,505.75 314.5,514.75 314.5,515.25 314.25,515.691 311,528.75 "
     style="fill:#e8f2ad" /><g
     id="g235"
     display="none"
     style="display:none"><text
       id="text237"
       font-size="15"
       display="inline"
       style="font-size:15px;font-family:DejaVuSansCondensed-Bold;display:inline;fill:#666767">Yukon</text>
<text
       id="text239"
       font-size="15"
       display="inline"
       style="font-size:15px;font-family:DejaVuSansCondensed-Bold;display:inline;fill:#666767">Nordwest- </text>
<text
       id="text241"
       font-size="15"
       display="inline"
       style="font-size:15px;font-family:DejaVuSansCondensed-Bold;display:inline;fill:#666767">        Territorien</text>
<text
       id="text243"
       font-size="15"
       display="inline"
       style="font-size:15px;font-family:DejaVuSansCondensed-Bold;display:inline;fill:#666767">Nunavut</text>
<text
       id="text245"
       font-size="15"
       display="inline"
       style="font-size:15px;font-family:DejaVuSansCondensed-Bold;display:inline;fill:#666767"> Qubec</text>
<text
       id="text247"
       font-size="15"
       display="inline"
       style="font-size:15px;font-family:DejaVuSansCondensed-Bold;display:inline;fill:#666767">British  </text>
<text
       id="text249"
       font-size="15"
       display="inline"
       style="font-size:15px;font-family:DejaVuSansCondensed-Bold;display:inline;fill:#666767"> Columbia</text>
<text
       id="text251"
       font-size="15"
       display="inline"
       style="font-size:15px;font-family:DejaVuSansCondensed-Bold;display:inline;fill:#666767">Alberta</text>
<text
       id="text253"
       font-size="15"
       display="inline"
       style="font-size:15px;font-family:DejaVuSansCondensed-Bold;display:inline;fill:#666767">Saskatchewan</text>
<g
       id="g255"
       enable-background="new    "
       display="inline"
       style="display:inline"><text
         id="text257"
         font-size="24"
         style="font-size:24px;font-family:DejaVuSans-Bold;fill:#646464">VEREINIGTE </text>
<text
         id="text259"
         font-size="24"
         style="font-size:24px;font-family:DejaVuSans-Bold;fill:#646464"> STAATEN</text>
</g><g
       id="g261"
       enable-background="new    "
       display="inline"
       style="display:inline"><text
         id="text263"
         font-size="18"
         style="font-size:18px;font-family:DejaVuSansCondensed-Bold;fill:#646464">VEREINIGTE </text>
<text
         id="text265"
         font-size="18"
         style="font-size:18px;font-family:DejaVuSansCondensed-Bold;fill:#646464"> STAATEN</text>
</g><g
       id="g267"
       enable-background="new    "
       display="inline"
       style="display:inline"><text
         id="text269"
         font-size="13"
         style="font-size:13px;font-family:DejaVuSans-Oblique;fill:#0978ab">Hudson- </text>
<text
         id="text271"
         font-size="13"
         style="font-size:13px;font-family:DejaVuSans-Oblique;fill:#0978ab"> bucht</text>
</g><g
       id="g273"
       enable-background="new    "
       display="inline"
       style="display:inline"><text
         id="text275"
         font-size="17"
         style="font-size:17px;font-family:DejaVuSerif-BoldItalic;fill:#0978ab">Labrador- </text>
<text
         id="text277"
         font-size="17"
         style="font-size:17px;font-family:DejaVuSerif-BoldItalic;fill:#0978ab">    see</text>
</g><g
       id="g279"
       enable-background="new    "
       display="inline"
       style="display:inline"><text
         id="text281"
         font-size="13"
         style="font-size:13px;font-family:DejaVuSans-Oblique;fill:#0978ab">Baffin- </text>
<text
         id="text283"
         font-size="13"
         style="font-size:13px;font-family:DejaVuSans-Oblique;fill:#0978ab">      Bucht</text>
</g><g
       id="g285"
       enable-background="new    "
       display="inline"
       style="display:inline"><text
         id="text287"
         font-size="10"
         style="font-size:10px;font-family:DejaVuSans-Oblique;fill:#0978ab">Davis- </text>
<text
         id="text289"
         font-size="10"
         style="font-size:10px;font-family:DejaVuSans-Oblique;fill:#0978ab">     strae</text>
</g><g
       id="g291"
       enable-background="new    "
       display="inline"
       style="display:inline"><text
         id="text293"
         font-size="17"
         style="font-size:17px;font-family:DejaVuSerif-BoldItalic;fill:#0978ab">Beaufort- </text>
<text
         id="text295"
         font-size="17"
         style="font-size:17px;font-family:DejaVuSerif-BoldItalic;fill:#0978ab">   see</text>
</g><g
       id="g297"
       enable-background="new    "
       display="inline"
       style="display:inline"><text
         id="text299"
         font-size="19"
         style="font-size:19px;font-family:DejaVuSerif-BoldItalic;fill:#0978ab">ATLANTISCHER </text>
<text
         id="text301"
         font-size="19"
         style="font-size:19px;font-family:DejaVuSerif-BoldItalic;fill:#0978ab">       OZEAN</text>
</g><g
       id="g303"
       enable-background="new    "
       display="inline"
       style="display:inline"><text
         id="text305"
         font-size="19"
         style="font-size:19px;font-family:DejaVuSerif-BoldItalic;fill:#0978ab">ATLANTISCHER </text>
<text
         id="text307"
         font-size="19"
         style="font-size:19px;font-family:DejaVuSerif-BoldItalic;fill:#0978ab">      OZEAN</text>
</g><g
       id="g309"
       enable-background="new    "
       display="inline"
       style="display:inline"><text
         id="text311"
         font-size="19"
         style="font-size:19px;font-family:DejaVuSerif-BoldItalic;fill:#0978ab">NORD- </text>
<text
         id="text313"
         font-size="19"
         style="font-size:19px;font-family:DejaVuSerif-BoldItalic;fill:#0978ab">        POLARMEER</text>
</g><g
       id="g315"
       enable-background="new    "
       display="inline"
       style="display:inline"><text
         id="text317"
         font-size="19"
         style="font-size:19px;font-family:DejaVuSerif-BoldItalic;fill:#0978ab">PAZIFIK</text>
</g><g
       id="g319"
       enable-background="new    "
       display="inline"
       style="display:inline"><text
         id="text321"
         font-size="24"
         style="font-size:24px;font-family:DejaVuSans-Bold;fill:#646464">DNEMARK</text>
</g><g
       id="g323"
       enable-background="new    "
       display="inline"
       style="display:inline"><text
         id="text325"
         font-size="22"
         style="font-size:22px;font-family:DejaVuSansCondensed-Bold;fill:#646464">ISLAND</text>
</g><g
       id="g327"
       enable-background="new    "
       display="inline"
       style="display:inline"><text
         id="text329"
         font-size="16"
         style="font-size:16px;font-family:DejaVuSansCondensed-Bold;fill:#646464">(GRNLAND)</text>
</g><text
       id="text331"
       font-size="15"
       display="inline"
       style="font-size:15px;font-family:DejaVuSansCondensed-Bold;display:inline;fill:#666767">Manitoba</text>
<text
       id="text333"
       font-size="15"
       display="inline"
       style="font-size:15px;font-family:DejaVuSansCondensed-Bold;display:inline;fill:#666767">Neufundland  </text>
<text
       id="text335"
       font-size="15"
       display="inline"
       style="font-size:15px;font-family:DejaVuSansCondensed-Bold;display:inline;fill:#666767">  und Labrador</text>
<text
       id="text337"
       font-size="8"
       display="inline"
       style="font-size:8px;font-family:DejaVuSansCondensed-Bold;display:inline;fill:#666767">  FRANKREICH</text>
<text
       id="text339"
       enable-background="new    "
       display="inline"
       style="display:inline"><tspan
         id="tspan341"
         font-size="8"
         y="0"
         x="0"
         style="font-size:8px;font-family:DejaVuSansCondensed-Bold;fill:#666767" /><tspan
         id="tspan343"
         font-size="5"
         y="0"
         x="5.007"
         style="font-size:5px;font-family:DejaVuSansCondensed-Bold;fill:#666767">(Saint-Pierre  </tspan><tspan
         id="tspan345"
         font-size="5"
         y="6"
         x="0"
         style="font-size:5px;font-family:DejaVuSansCondensed-Bold;fill:#666767">       und Miquelon)</tspan></text>
<text
       id="text347"
       font-size="15"
       display="inline"
       style="font-size:15px;font-family:DejaVuSansCondensed-Bold;display:inline;fill:#666767">Ontario</text>
<text
       id="text349"
       font-size="15"
       display="inline"
       style="font-size:15px;font-family:DejaVuSansCondensed-Bold;display:inline;fill:#666767">New  </text>
<text
       id="text351"
       font-size="15"
       display="inline"
       style="font-size:15px;font-family:DejaVuSansCondensed-Bold;display:inline;fill:#666767"> Brunswick</text>
<text
       id="text353"
       font-size="15"
       display="inline"
       style="font-size:15px;font-family:DejaVuSansCondensed-Bold;display:inline;fill:#666767">Prince </text>
<text
       id="text355"
       font-size="15"
       display="inline"
       style="font-size:15px;font-family:DejaVuSansCondensed-Bold;display:inline;fill:#666767">Edward  </text>
<text
       id="text357"
       font-size="15"
       display="inline"
       style="font-size:15px;font-family:DejaVuSansCondensed-Bold;display:inline;fill:#666767">Island</text>
<text
       id="text359"
       font-size="15"
       display="inline"
       style="font-size:15px;font-family:DejaVuSansCondensed-Bold;display:inline;fill:#666767">   Nova  </text>
<text
       id="text361"
       font-size="15"
       display="inline"
       style="font-size:15px;font-family:DejaVuSansCondensed-Bold;display:inline;fill:#666767">Scotia</text>
</g><line
     style="fill:none;stroke:#000000;stroke-width:0.34333554;stroke-miterlimit:10;stroke-dasharray:none"
     id="line1201"
     y2="674.60474"
     x2="952.20435"
     y1="709.25854"
     x1="956.02136"
     stroke-miterlimit="10" /><text
     id="textBC"
     y="571.38513"
     x="32.319023"
     style="font-style:normal;font-weight:normal;font-size:40px;line-height:125%;font-family:sans-serif;letter-spacing:0px;word-spacing:0px;text-anchor:middle;fill:#000000;fill-opacity:1;stroke:none;stroke-width:1px;stroke-linecap:butt;stroke-linejoin:miter;stroke-opacity:1"
     xml:space="preserve"
     inkscape:label="#text4311"
     sodipodi:linespacing="125%"><tspan
       style="font-style:normal;font-variant:normal;font-weight:normal;font-stretch:normal;font-size:15px;line-height:125%;font-family:DejaVuSansCondensed-Bold;-inkscape-font-specification:'DejaVuSansCondensed-Bold, Normal';text-align:start;writing-mode:lr-tb;text-anchor:start"
       y="571.38513"
       x="32.319023"
       id="tspan4313">British Columbia</tspan></text>
<text
     id="textAB"
     y="619.59662"
     x="229.58484"
     style="font-style:normal;font-weight:normal;font-size:40px;line-height:125%;font-family:sans-serif;letter-spacing:0px;word-spacing:0px;text-anchor:middle;fill:#000000;fill-opacity:1;stroke:none;stroke-width:1px;stroke-linecap:butt;stroke-linejoin:miter;stroke-opacity:1"
     xml:space="preserve"
     sodipodi:linespacing="125%"
     inkscape:label="#text4311-7"><tspan
       style="font-style:normal;font-variant:normal;font-weight:normal;font-stretch:normal;font-size:15px;line-height:125%;font-family:DejaVuSansCondensed-Bold;-inkscape-font-specification:'DejaVuSansCondensed-Bold, Normal';text-align:start;writing-mode:lr-tb;text-anchor:middle"
       y="619.59662"
       x="229.58484"
       id="tspan4313-6">Alberta</tspan></text>
<text
     id="textSK"
     y="658.63062"
     x="332.41284"
     style="font-style:normal;font-weight:normal;font-size:40px;line-height:125%;font-family:sans-serif;letter-spacing:0px;word-spacing:0px;text-anchor:middle;fill:#000000;fill-opacity:1;stroke:none;stroke-width:1px;stroke-linecap:butt;stroke-linejoin:miter;stroke-opacity:1"
     xml:space="preserve"
     sodipodi:linespacing="125%"
     inkscape:label="#text4311-7-6"><tspan
       style="font-style:normal;font-variant:normal;font-weight:normal;font-stretch:normal;font-size:15px;line-height:125%;font-family:DejaVuSansCondensed-Bold;-inkscape-font-specification:'DejaVuSansCondensed-Bold, Normal';text-align:start;writing-mode:lr-tb;text-anchor:middle"
       y="658.63062"
       x="332.41284"
       id="tspan4313-6-8">Saskatchewan</tspan></text>
<text
     id="textMB"
     y="658.25568"
     x="441.82257"
     style="font-style:normal;font-weight:normal;font-size:40px;line-height:125%;font-family:sans-serif;letter-spacing:0px;word-spacing:0px;text-anchor:middle;fill:#000000;fill-opacity:1;stroke:none;stroke-width:1px;stroke-linecap:butt;stroke-linejoin:miter;stroke-opacity:1"
     xml:space="preserve"
     sodipodi:linespacing="125%"
     inkscape:label="#text4311-7-7"><tspan
       style="font-style:normal;font-variant:normal;font-weight:normal;font-stretch:normal;font-size:15px;line-height:125%;font-family:DejaVuSansCondensed-Bold;-inkscape-font-specification:'DejaVuSansCondensed-Bold, Normal';text-align:start;writing-mode:lr-tb;text-anchor:middle"
       y="658.25568"
       x="441.82257"
       id="tspan4313-6-7">Manitoba</tspan></text>
<text
     id="textON"
     y="720.90051"
     x="586.26611"
     style="font-style:normal;font-weight:normal;font-size:40px;line-height:125%;font-family:sans-serif;letter-spacing:0px;word-spacing:0px;text-anchor:middle;fill:#000000;fill-opacity:1;stroke:none;stroke-width:1px;stroke-linecap:butt;stroke-linejoin:miter;stroke-opacity:1"
     xml:space="preserve"
     sodipodi:linespacing="125%"
     inkscape:label="#text4311-7-8"><tspan
       style="font-style:normal;font-variant:normal;font-weight:normal;font-stretch:normal;font-size:15px;line-height:125%;font-family:DejaVuSansCondensed-Bold;-inkscape-font-specification:'DejaVuSansCondensed-Bold, Normal';text-align:start;writing-mode:lr-tb;text-anchor:middle"
       y="720.90051"
       x="586.26611"
       id="tspan4313-6-79">Ontario</tspan></text>
<text
     id="textQC"
     y="694.40381"
     x="775.9826"
     style="font-style:normal;font-weight:normal;font-size:40px;line-height:125%;font-family:sans-serif;letter-spacing:0px;word-spacing:0px;text-anchor:middle;fill:#000000;fill-opacity:1;stroke:none;stroke-width:1px;stroke-linecap:butt;stroke-linejoin:miter;stroke-opacity:1"
     xml:space="preserve"
     sodipodi:linespacing="125%"
     inkscape:label="#text4311-7-72"><tspan
       style="font-style:normal;font-variant:normal;font-weight:normal;font-stretch:normal;font-size:15px;line-height:125%;font-family:DejaVuSansCondensed-Bold;-inkscape-font-specification:'DejaVuSansCondensed-Bold, Normal';text-align:start;writing-mode:lr-tb;text-anchor:middle"
       y="694.40381"
       x="775.9826"
       id="tspan4313-6-9">Quebec</tspan></text>
<text
     id="textNL"
     y="552.10919"
     x="894.55969"
     style="font-style:normal;font-weight:normal;font-size:40px;line-height:125%;font-family:sans-serif;letter-spacing:0px;word-spacing:0px;text-anchor:start;fill:#000000;fill-opacity:1;stroke:none;stroke-width:1px;stroke-linecap:butt;stroke-linejoin:miter;stroke-opacity:1"
     xml:space="preserve"
     sodipodi:linespacing="125%"
     inkscape:label="#text4311-7-1"><tspan
       style="font-style:normal;font-variant:normal;font-weight:normal;font-stretch:normal;font-size:15px;line-height:125%;font-family:DejaVuSansCondensed-Bold;-inkscape-font-specification:'DejaVuSansCondensed-Bold, Normal';text-align:start;writing-mode:lr-tb;text-anchor:start"
       y="552.10919"
       x="894.55969"
       id="tspan4313-6-96">Newfoundland &amp; Labrador</tspan></text>
<text
     id="textNB"
     y="734.92676"
     x="896.43732"
     style="font-style:normal;font-weight:normal;font-size:40px;line-height:125%;font-family:sans-serif;letter-spacing:0px;word-spacing:0px;text-anchor:middle;fill:#000000;fill-opacity:1;stroke:none;stroke-width:1px;stroke-linecap:butt;stroke-linejoin:miter;stroke-opacity:1"
     xml:space="preserve"
     sodipodi:linespacing="125%"
     inkscape:label="#text4311-7-68"><tspan
       style="font-style:normal;font-variant:normal;font-weight:normal;font-stretch:normal;font-size:15px;line-height:125%;font-family:DejaVuSansCondensed-Bold;-inkscape-font-specification:'DejaVuSansCondensed-Bold, Normal';text-align:start;writing-mode:lr-tb;text-anchor:middle"
       y="734.92676"
       x="896.43732"
       id="tspan4313-6-88">New Brunswick</tspan></text>
<text
     id="textNS"
     y="769.13873"
     x="945.37775"
     style="font-style:normal;font-weight:normal;font-size:40px;line-height:125%;font-family:sans-serif;letter-spacing:0px;word-spacing:0px;text-anchor:middle;fill:#000000;fill-opacity:1;stroke:none;stroke-width:1px;stroke-linecap:butt;stroke-linejoin:miter;stroke-opacity:1"
     xml:space="preserve"
     sodipodi:linespacing="125%"
     inkscape:label="#text4311-7-5"><tspan
       style="font-style:normal;font-variant:normal;font-weight:normal;font-stretch:normal;font-size:15px;line-height:125%;font-family:DejaVuSansCondensed-Bold;-inkscape-font-specification:'DejaVuSansCondensed-Bold, Normal';text-align:start"
       y="769.13873"
       x="945.37775"
       id="tspan4313-6-1">Nova Scotia</tspan></text>
<text
     id="textPE"
     y="671.84576"
     x="946.48138"
     style="font-style:normal;font-weight:normal;font-size:40px;line-height:125%;font-family:sans-serif;letter-spacing:0px;word-spacing:0px;text-anchor:start;fill:#000000;fill-opacity:1;stroke:none;stroke-width:1px;stroke-linecap:butt;stroke-linejoin:miter;stroke-opacity:1"
     xml:space="preserve"
     sodipodi:linespacing="125%"
     inkscape:label="#text4311-7-4"><tspan
       style="font-style:normal;font-variant:normal;font-weight:normal;font-stretch:normal;font-size:15px;line-height:125%;font-family:DejaVuSansCondensed-Bold;-inkscape-font-specification:'DejaVuSansCondensed-Bold, Normal';text-align:start;writing-mode:lr-tb;text-anchor:start"
       y="671.84576"
       x="946.48138"
       id="tspan4313-6-92">Prince Edward Island</tspan></text>
<text
     id="textYT"
     y="381.121"
     x="95.9049"
     style="font-style:normal;font-weight:normal;font-size:40px;line-height:125%;font-family:sans-serif;letter-spacing:0px;word-spacing:0px;text-anchor:middle;fill:#000000;fill-opacity:1;stroke:none;stroke-width:1px;stroke-linecap:butt;stroke-linejoin:miter;stroke-opacity:1"
     xml:space="preserve"
     sodipodi:linespacing="125%"
     inkscape:label="#text4311-7-3"><tspan
       style="font-style:normal;font-variant:normal;font-weight:normal;font-stretch:normal;font-size:15px;line-height:125%;font-family:DejaVuSansCondensed-Bold;-inkscape-font-specification:'DejaVuSansCondensed-Bold, Normal';text-align:start;writing-mode:lr-tb;text-anchor:middle"
       y="381.121"
       x="95.9049"
       id="tspan4313-6-3">Yukon</tspan></text>
<text
     id="textNT"
     y="438.9122"
     x="275.51785"
     style="font-style:normal;font-weight:normal;font-size:40px;line-height:125%;font-family:sans-serif;letter-spacing:0px;word-spacing:0px;text-anchor:middle;fill:#000000;fill-opacity:1;stroke:none;stroke-width:1px;stroke-linecap:butt;stroke-linejoin:miter;stroke-opacity:1"
     xml:space="preserve"
     sodipodi:linespacing="125%"
     inkscape:label="#text4311-7-2"><tspan
       style="font-style:normal;font-variant:normal;font-weight:normal;font-stretch:normal;font-size:15px;line-height:125%;font-family:DejaVuSansCondensed-Bold;-inkscape-font-specification:'DejaVuSansCondensed-Bold, Normal';text-align:start;writing-mode:lr-tb;text-anchor:middle"
       y="438.9122"
       x="275.51785"
       id="tspan4313-6-2">Northwest Territories</tspan></text>
<text
     id="textNU"
     y="407.64963"
     x="448.13364"
     style="font-style:normal;font-weight:normal;font-size:40px;line-height:125%;font-family:sans-serif;letter-spacing:0px;word-spacing:0px;text-anchor:middle;fill:#000000;fill-opacity:1;stroke:none;stroke-width:1px;stroke-linecap:butt;stroke-linejoin:miter;stroke-opacity:1"
     xml:space="preserve"
     sodipodi:linespacing="125%"
     inkscape:label="#text4311-7-16"><tspan
       style="font-style:normal;font-variant:normal;font-weight:normal;font-stretch:normal;font-size:15px;line-height:125%;font-family:DejaVuSansCondensed-Bold;-inkscape-font-specification:'DejaVuSansCondensed-Bold, Normal';text-align:start;writing-mode:lr-tb;text-anchor:middle"
       y="407.64963"
       x="448.13364"
       id="tspan4313-6-17">Nunavut</tspan></text>
</svg>